<?xml version="1.0" standalone="no"?>
<!DOCTYPE svg PUBLIC "-//W3C//DTD SVG 20010904//EN"
 "http://www.w3.org/TR/2001/REC-SVG-20010904/DTD/svg10.dtd">
<svg version="1.0" xmlns="http://www.w3.org/2000/svg"
 width="1024.000000pt" height="512.000000pt" viewBox="0 0 1024.000000 512.000000"
 preserveAspectRatio="xMidYMid meet">

<g transform="translate(0.000000,512.000000) scale(0.100000,-0.100000)"
fill="#000000" stroke="none">
<path d="M2465 4114 c-49 -7 -117 -20 -150 -29 -71 -20 -73 -20 -150 -6 -71
13 -264 14 -320 1 -93 -21 -126 -31 -171 -55 -46 -24 -50 -25 -93 -11 -25 8
-77 21 -116 30 -38 8 -95 20 -125 27 -87 19 -332 16 -413 -5 -77 -19 -185 -63
-205 -83 -7 -7 -17 -13 -21 -13 -13 0 -100 -90 -130 -134 -83 -120 -121 -269
-121 -468 0 -176 48 -425 144 -748 9 -30 21 -68 26 -85 53 -182 165 -441 239
-550 41 -62 121 -145 138 -145 7 0 13 -4 13 -9 0 -14 88 -34 126 -28 39 7 108
39 131 63 13 13 18 11 44 -10 35 -29 134 -60 253 -77 94 -13 178 -4 238 27 26
13 28 13 32 -8 3 -13 7 -102 11 -198 7 -224 27 -335 72 -418 55 -101 158 -164
283 -175 80 -6 221 15 285 42 11 5 40 17 64 27 45 19 146 109 172 154 44 73
86 293 114 582 8 88 0 83 144 84 133 1 196 14 291 57 49 23 150 112 150 133 0
7 3 14 8 16 11 5 40 69 46 103 9 47 -7 88 -45 113 -28 20 -42 23 -79 17 -118
-16 -227 -25 -256 -19 -31 6 -32 7 -21 32 6 15 17 33 24 40 7 7 13 20 13 28 0
8 4 14 9 14 5 0 12 12 16 27 3 15 10 30 13 33 12 8 114 228 127 270 4 14 11
30 15 35 10 13 86 237 100 295 6 25 18 72 26 105 53 215 56 452 7 555 -17 36
-143 168 -202 210 -190 139 -473 197 -756 154z m412 -103 c43 -10 87 -22 98
-26 54 -20 154 -72 190 -98 63 -48 164 -153 176 -184 37 -93 48 -231 28 -352
-15 -97 -40 -222 -49 -251 -5 -14 -18 -59 -30 -100 -12 -41 -25 -84 -30 -95
-4 -11 -15 -40 -25 -65 -10 -25 -21 -54 -25 -65 -50 -126 -172 -364 -232 -453
-16 -23 -27 -46 -23 -51 3 -5 29 -15 59 -21 42 -9 74 -8 150 5 178 28 226 17
226 -52 0 -27 -10 -43 -47 -81 -27 -27 -55 -51 -63 -55 -8 -4 -30 -16 -49 -28
-50 -30 -103 -46 -219 -65 -80 -13 -113 -14 -155 -6 -67 13 -75 5 -82 -78 -12
-134 -50 -395 -72 -490 -19 -78 -34 -111 -80 -167 -48 -59 -83 -82 -181 -114
-68 -23 -103 -29 -174 -29 -79 0 -96 4 -149 29 -71 36 -104 69 -134 136 -42
92 -53 162 -65 420 -7 138 -14 252 -16 254 -2 2 -12 -2 -21 -10 -10 -8 -34
-22 -53 -31 -19 -9 -48 -22 -63 -29 -17 -8 -67 -13 -127 -13 -113 0 -192 22
-241 66 -26 24 -30 34 -27 70 3 37 8 45 40 63 20 11 76 29 124 40 76 18 92 25
131 62 49 48 54 63 19 63 -13 0 -50 10 -81 22 l-58 22 -31 -35 c-17 -19 -60
-68 -96 -109 -133 -152 -194 -206 -245 -219 -58 -15 -121 3 -177 50 -50 40
-137 174 -182 279 -21 47 -41 94 -46 105 -27 58 -99 293 -131 420 -11 44 -26
105 -34 135 -7 30 -21 93 -30 140 -9 47 -20 107 -26 133 -13 67 -11 288 2 361
26 138 70 245 125 305 13 14 24 29 24 33 0 5 7 8 15 8 8 0 15 4 15 9 0 5 22
23 49 40 81 49 253 91 372 91 82 -1 354 -45 409 -67 71 -29 129 -30 150 -2 11
13 68 36 133 53 56 15 90 17 215 12 225 -11 231 -10 322 11 120 29 385 31 497
4z"/>
<path d="M2455 3925 c-16 -7 -24 -14 -16 -14 43 -3 243 -163 326 -262 39 -46
112 -165 142 -229 58 -126 60 -155 33 -365 -8 -68 -8 -133 1 -270 13 -205 6
-284 -35 -364 -31 -63 -9 -57 25 7 14 26 43 79 64 117 40 73 43 79 68 135 53
120 66 152 86 210 13 36 27 74 32 85 8 19 12 34 44 152 33 119 47 204 52 314
8 161 -7 207 -91 286 -87 82 -104 94 -176 129 -66 33 -128 54 -213 73 -69 16
-305 13 -342 -4z"/>
<path d="M1890 3896 c-111 -24 -170 -56 -250 -137 -94 -94 -149 -210 -199
-422 -6 -26 -11 -61 -11 -77 l0 -30 38 16 c165 72 314 72 391 1 75 -69 104
-188 105 -422 0 -171 2 -165 -66 -335 -16 -41 -33 -82 -38 -90 -4 -9 -11 -30
-14 -48 -4 -17 -12 -34 -17 -37 -17 -11 -9 -25 14 -25 55 0 138 -67 156 -124
5 -17 12 -184 15 -371 5 -346 10 -395 49 -485 49 -113 162 -155 309 -116 207
55 241 118 288 541 5 50 12 101 15 115 3 14 11 90 18 170 15 165 28 201 88
244 39 27 40 29 24 53 -9 13 -24 33 -33 44 -48 56 -252 468 -252 508 0 9 -4
21 -10 27 -15 15 -33 154 -27 212 5 51 35 114 67 140 47 39 145 69 247 75 l42
2 -21 50 c-12 28 -34 69 -50 93 -15 24 -28 47 -28 53 0 5 -4 9 -9 9 -5 0 -12
9 -16 20 -12 38 -215 230 -244 230 -6 0 -11 4 -11 8 0 7 -15 15 -115 57 -137
58 -323 79 -455 51z"/>
<path d="M1015 3891 c-70 -11 -110 -28 -181 -74 -84 -54 -121 -106 -175 -245
-5 -13 -14 -76 -21 -140 -14 -143 1 -285 56 -522 31 -134 86 -335 105 -385 18
-47 33 -92 38 -115 3 -14 12 -34 19 -45 8 -11 14 -25 14 -32 0 -20 58 -139
105 -213 46 -75 98 -127 137 -135 33 -8 82 17 117 58 14 17 33 39 41 47 8 9
44 50 80 91 35 41 75 84 87 96 26 25 29 39 10 50 -25 14 -94 127 -111 180 -19
59 -20 70 -13 463 4 282 12 361 47 490 22 81 87 235 106 251 8 6 14 17 14 24
0 8 4 15 8 17 11 4 66 78 61 81 -6 5 -78 25 -154 42 -78 18 -313 28 -390 16z"/>
<path d="M2695 3211 c-108 -27 -138 -107 -99 -263 17 -67 75 -200 134 -308 20
-36 45 -83 55 -105 31 -63 42 -70 50 -32 10 42 10 219 0 376 -6 87 -4 142 5
190 7 36 13 84 14 106 l1 40 -65 2 c-36 1 -78 -2 -95 -6z m79 -36 c17 -13 18
-18 6 -39 -18 -34 -74 -60 -99 -46 -28 14 -51 39 -51 54 0 18 58 46 95 45 17
0 39 -6 49 -14z"/>
<path d="M1620 3194 c-29 -5 -87 -28 -147 -57 l-43 -20 0 -144 c0 -79 -5 -186
-11 -238 -13 -121 0 -199 45 -269 61 -95 125 -140 213 -152 l48 -6 18 57 c10
32 29 83 43 114 69 151 89 240 81 378 -10 190 -31 276 -75 317 -21 19 -118 30
-172 20z m170 -54 c11 -11 20 -25 20 -30 0 -22 -50 -60 -77 -60 -51 0 -100 51
-88 90 9 29 116 29 145 0z"/>
<path d="M2851 2189 c-35 -14 -50 -39 -51 -81 l0 -38 116 0 c125 0 180 12 273
59 30 15 57 33 59 40 3 10 0 11 -19 1 -14 -8 -67 -13 -139 -13 -100 -1 -123 2
-163 21 -26 12 -48 22 -49 21 -2 0 -14 -5 -27 -10z"/>
<path d="M1799 2154 c-118 -126 -135 -137 -266 -165 -29 -6 -53 -14 -53 -19 0
-4 38 -14 85 -21 134 -20 219 5 301 89 41 41 45 50 40 80 -5 34 -38 72 -61 72
-7 0 -27 -16 -46 -36z"/>
<path d="M7585 3150 c-11 -5 -33 -9 -48 -9 -30 -1 -114 -36 -131 -55 -40 -44
-50 -62 -61 -116 -10 -50 -10 -72 0 -117 17 -71 40 -102 97 -131 56 -28 107
-41 358 -91 69 -14 115 -37 145 -73 25 -30 27 -37 23 -112 -4 -94 -22 -123
-98 -160 -39 -18 -62 -21 -170 -21 -119 0 -127 2 -179 30 -29 16 -64 43 -76
60 -25 32 -55 108 -55 138 0 15 -7 18 -37 15 -42 -3 -41 -3 -30 -84 7 -52 44
-118 78 -142 10 -7 24 -19 32 -27 8 -8 28 -17 43 -21 16 -4 35 -12 43 -18 9
-7 72 -11 180 -10 136 0 171 3 196 17 17 9 36 17 43 17 6 0 12 4 12 9 0 5 8
11 19 14 10 2 33 26 52 53 31 44 34 57 37 130 3 67 0 88 -17 122 -43 84 -113
113 -426 173 -33 6 -64 15 -69 20 -6 5 -17 9 -27 9 -47 0 -99 77 -99 146 0 92
48 144 154 169 191 45 349 -24 371 -162 7 -42 8 -43 46 -43 l39 0 0 49 c0 28
-4 52 -9 55 -5 3 -12 18 -15 32 -8 30 -61 82 -93 90 -13 4 -23 10 -23 14 0 23
-263 49 -305 30z"/>
<path d="M8470 3150 c-8 -5 -25 -10 -38 -10 -40 0 -167 -66 -213 -111 -26 -26
-79 -106 -79 -121 0 -7 -8 -26 -17 -43 -26 -47 -25 -299 2 -377 10 -32 22 -58
26 -58 4 0 9 -10 13 -23 6 -25 89 -117 106 -117 5 0 10 -4 10 -8 0 -8 54 -37
120 -63 24 -10 80 -14 181 -14 145 0 152 1 230 40 25 12 30 10 65 -18 22 -18
48 -40 59 -50 39 -36 53 -39 75 -15 11 12 20 27 20 32 0 6 -25 29 -56 51 -81
58 -81 58 -39 102 76 79 106 168 106 326 0 135 -15 201 -66 282 -84 133 -206
194 -400 202 -50 2 -97 -1 -105 -7z m225 -70 c28 -7 52 -15 55 -19 3 -3 16
-12 30 -19 172 -90 240 -372 140 -585 -27 -57 -100 -130 -157 -157 -104 -49
-270 -51 -368 -5 -73 35 -158 119 -171 169 -3 14 -9 26 -13 26 -14 0 -35 127
-33 205 1 82 35 209 63 238 8 8 27 31 44 51 16 20 36 36 42 36 7 0 13 4 13 8
0 10 66 40 128 57 54 15 155 13 227 -5z"/>
<path d="M9122 2678 l3 -453 310 -3 c171 -1 319 0 330 2 22 6 29 45 11 58 -6
4 -138 8 -293 8 l-283 0 0 420 0 420 -40 0 -40 0 2 -452z"/>
<path d="M3720 2640 l0 -380 40 0 40 0 0 160 c0 157 0 160 23 164 12 3 99 7
192 8 159 3 172 5 208 27 21 13 50 42 65 64 24 36 27 50 26 126 0 105 -20 145
-96 194 -24 15 -56 17 -263 17 l-235 0 0 -380z m450 310 c32 -19 52 -46 67
-90 17 -48 16 -71 -6 -122 -25 -59 -46 -74 -115 -87 -82 -15 -289 -14 -304 1
-13 13 -18 299 -4 312 4 4 81 6 172 4 122 -3 171 -7 190 -18z"/>
<path d="M5565 2918 c-3 -7 -6 -44 -7 -83 l-3 -70 -37 -3 c-33 -3 -38 -7 -38
-28 0 -21 4 -24 39 -24 l39 0 4 -203 c3 -232 4 -235 87 -248 60 -10 91 -2 91
22 0 15 -7 19 -34 19 -19 0 -44 9 -57 19 -24 19 -24 22 -24 203 l0 183 58 3
c53 3 57 5 57 27 0 22 -4 24 -57 27 l-58 3 -3 83 c-3 80 -3 82 -28 82 -13 0
-27 -6 -29 -12z"/>
<path d="M4463 2740 c-29 -17 -53 -34 -53 -38 0 -5 -9 -17 -19 -29 -20 -21
-51 -126 -51 -171 0 -36 26 -120 47 -151 64 -99 205 -138 331 -92 75 28 95 45
135 116 30 55 32 225 3 271 -62 98 -113 124 -243 124 -91 0 -102 -2 -150 -30z
m275 -48 c57 -41 74 -81 74 -180 0 -73 -4 -93 -22 -125 -75 -127 -292 -123
-355 5 -14 30 -19 61 -19 124 0 77 2 87 30 125 45 65 83 81 180 77 63 -3 87
-9 112 -26z"/>
<path d="M5029 2750 c-45 -24 -71 -63 -72 -109 -1 -45 21 -97 48 -110 34 -17
132 -41 164 -41 18 0 61 -7 97 -16 57 -15 68 -21 81 -50 20 -40 6 -83 -36
-111 -34 -23 -190 -25 -238 -3 -32 14 -63 56 -63 84 0 12 -10 16 -36 16 -35 0
-35 -1 -29 -32 9 -43 36 -88 52 -88 7 0 13 -4 13 -8 0 -14 116 -42 176 -42 62
0 157 24 191 49 22 16 53 78 53 106 0 8 -7 32 -16 53 -24 54 -90 81 -244 98
-117 13 -166 50 -144 111 18 50 57 68 147 68 85 0 147 -22 147 -52 0 -7 5 -13
10 -13 6 0 10 -11 10 -25 0 -21 5 -25 30 -25 27 0 30 3 30 31 0 41 -32 85 -80
109 -55 28 -238 28 -291 0z"/>
<path d="M5880 2752 c-19 -9 -52 -33 -72 -54 -44 -46 -63 -121 -55 -216 14
-141 100 -212 257 -212 43 0 81 4 84 9 3 5 17 12 32 15 14 4 38 18 52 32 l27
24 3 -72 c4 -86 -14 -128 -68 -160 -29 -17 -52 -21 -127 -21 -85 0 -96 3 -127
27 -20 15 -37 38 -41 56 -6 26 -11 30 -41 30 -40 0 -41 -5 -13 -64 25 -54 50
-72 131 -92 111 -29 238 -4 299 57 54 54 60 98 57 394 l-3 250 -30 0 c-27 0
-30 -4 -33 -32 -4 -39 -8 -40 -33 -9 -33 41 -79 56 -176 55 -60 0 -99 -6 -123
-17z m223 -41 c28 -11 65 -44 90 -81 24 -35 24 -180 0 -218 -42 -64 -96 -92
-178 -92 -73 0 -137 29 -170 77 -22 33 -25 48 -25 123 0 64 4 92 17 110 25 38
73 78 97 83 41 8 145 7 169 -2z"/>
<path d="M6488 2729 c-39 -40 -54 -38 -46 7 2 15 -4 20 -29 22 l-33 3 0 -250
0 -251 30 0 30 0 0 128 c1 128 16 229 40 268 21 34 73 56 129 56 50 -1 51 0
51 29 l0 29 -67 0 c-64 0 -67 -1 -105 -41z"/>
<path d="M6815 2752 c-82 -33 -129 -102 -141 -205 -14 -122 36 -226 133 -273
129 -63 280 -33 354 70 39 52 38 76 -1 76 -23 0 -33 -7 -46 -32 -37 -72 -105
-105 -201 -95 -71 7 -126 44 -157 104 -19 38 -21 93 -3 93 6 1 106 0 221 0
132 0 213 3 221 10 10 8 10 23 1 73 -26 135 -108 197 -259 196 -52 0 -97 -6
-122 -17z m188 -33 c69 -19 156 -131 131 -170 -3 -5 -93 -9 -200 -9 l-194 0 0
26 c0 33 27 81 63 116 46 42 127 58 200 37z"/>
</g>
</svg>
