<?xml version="1.0" encoding="UTF-8" standalone="no"?>
<!-- Created with Inkscape (http://www.inkscape.org/) -->

<svg
   width="210mm"
   height="297mm"
   viewBox="0 0 210 297"
   version="1.1"
   id="svg5"
   inkscape:version="1.1.2 (0a00cf5339, 2022-02-04)"
   sodipodi:docname="caduceoBlanco.svg"
   xmlns:inkscape="http://www.inkscape.org/namespaces/inkscape"
   xmlns:sodipodi="http://sodipodi.sourceforge.net/DTD/sodipodi-0.dtd"
   xmlns="http://www.w3.org/2000/svg"
   xmlns:svg="http://www.w3.org/2000/svg">
  <sodipodi:namedview
     id="namedview7"
     pagecolor="#505050"
     bordercolor="#ffffff"
     borderopacity="1"
     inkscape:pageshadow="0"
     inkscape:pageopacity="0"
     inkscape:pagecheckerboard="1"
     inkscape:document-units="mm"
     showgrid="false"
     inkscape:zoom="0.32063344"
     inkscape:rotation="-1"
     inkscape:cx="61.510917"
     inkscape:cy="503.05058"
     inkscape:window-width="1366"
     inkscape:window-height="695"
     inkscape:window-x="0"
     inkscape:window-y="0"
     inkscape:window-maximized="1"
     inkscape:current-layer="g4344" />
  <defs
     id="defs2" />
  <g
     inkscape:label="Layer 1"
     inkscape:groupmode="layer"
     id="layer1">
    <g
       id="g4344"
       transform="translate(-188.51246,-82.152874)"
       inkscape:export-filename="/home/jona/Desktop/CliniShare/documentación/imagenes/g4344.png"
       inkscape:export-xdpi="96"
       inkscape:export-ydpi="96">
      <g
         id="g1531"
         transform="translate(188.75894,5.635271)"
         inkscape:export-filename="/home/jona/Desktop/CliniShare/documentación/imagenes/caduceoBlanco.png"
         inkscape:export-xdpi="96"
         inkscape:export-ydpi="96">
        <path
           style="fill:#000000;stroke-width:0.194159"
           d="m 173.8717,106.43826 c -0.17044,-0.17044 -0.47312,-0.27112 -0.67262,-0.22373 -0.31715,0.0753 -0.30173,0.11273 0.12267,0.29759 0.70443,0.30683 0.90385,0.28005 0.54995,-0.0739 z"
           id="path1370" />
        <path
           style="fill:#000000;stroke-width:0.194159"
           d="m 174.57726,106.50546 c -0.0714,-0.24027 -0.2687,-0.54607 -0.43851,-0.67956 -0.4225,-0.33211 -1.2999,-0.30539 -1.59364,0.0485 -0.15242,0.18366 -0.16543,0.29124 -0.0352,0.29124 0.11356,0 0.26047,-0.0874 0.32647,-0.19416 0.16587,-0.26838 0.94059,-0.24378 1.2232,0.0388 0.12815,0.12814 0.23299,0.39026 0.23299,0.58247 0,0.19222 0.0933,0.34949 0.20725,0.34949 0.12392,0 0.15507,-0.17562 0.0775,-0.43686 z"
           id="path1368" />
        <path
           style="fill:#000000;stroke-width:0.194159"
           d="m 176.1457,105.75011 c 0.17302,-0.54512 -0.19944,-0.89103 -0.85568,-0.79471 -0.69904,0.10259 -1.00402,-0.29852 -0.50463,-0.66368 0.1969,-0.14399 0.27141,-0.26179 0.16557,-0.26179 -0.30699,0 -0.65842,0.43526 -0.65842,0.81547 0,0.27742 0.15778,0.34949 0.76518,0.34949 0.87503,0 1.11638,0.22645 0.6928,0.65003 -0.37105,0.37105 -0.37485,0.53413 -0.009,0.39381 0.15611,-0.0599 0.33807,-0.27979 0.40436,-0.48862 z"
           id="path1366" />
        <path
           style="fill:#000000;stroke-width:0.194159"
           d="m 175.06918,106.18186 c 0,-0.20467 0.10921,-0.41621 0.2427,-0.47007 0.13348,-0.0539 0.016,-0.10483 -0.26115,-0.11326 -0.55936,-0.017 -1.14651,-0.55242 -1.14651,-1.04547 0,-0.40642 0.87405,-0.99012 1.26054,-0.84181 0.35309,0.1355 0.39142,0.69661 0.05,0.73256 -0.13349,0.0141 0.0631,0.0796 0.43686,0.14562 0.59819,0.10569 0.68695,0.19713 0.74134,0.76376 0.074,0.77135 -0.23432,1.20081 -0.8622,1.20081 -0.32549,0 -0.46162,-0.10974 -0.46162,-0.37214 z"
           id="path1364" />
        <path
           style="fill:#000000;stroke-width:0.194159"
           d="m 190.48782,108.39868 c 1.37493,-0.29127 3.4849,-1.17767 4.26485,-1.79165 0.42343,-0.33333 0.32893,-0.34502 -2.97313,-0.36802 -5.76071,-0.0401 -11.04488,-1.07618 -17.487,-3.42859 -3.41283,-1.24623 -7.8096,-3.292018 -18.09375,-8.418884 -13.47328,-6.716717 -18.28907,-8.833053 -23.49729,-10.326069 -5.38056,-1.542421 -9.30874,-1.266699 -12.19189,0.85576 -1.62866,1.198949 -2.37811,2.436139 -3.10714,5.129251 -1.684,6.22084 -2.89269,8.955439 -4.79671,10.852372 -1.0609,1.05694 -1.59229,1.42004 -2.72549,1.86236 l -1.40765,0.54943 v 2.1299 2.12989 l 0.81393,-0.13016 c 1.96033,-0.31347 5.09383,-2.09328 6.57814,-3.73635 2.99469,-3.315 4.65675,-7.068121 6.11106,-13.7995 0.12538,-0.580336 1.16744,-1.744067 1.91279,-2.136131 0.91156,-0.47949 4.61411,-0.568314 6.77498,-0.162531 3.10688,0.583431 6.63186,1.954455 12.6185,4.907901 1.57863,0.7788 2.90015,1.416001 2.93672,1.416001 0.0366,0 3.11354,1.49426 6.83771,3.320579 8.01968,3.932811 15.54579,7.474221 17.4765,8.223561 l 1.38562,0.53779 0.41035,-0.41035 c 0.80507,-0.80507 2.44912,-0.23654 2.58215,0.89293 0.0687,0.58353 0.38859,0.69829 3.95818,1.42009 3.87287,0.78312 9.15812,1.00167 11.61857,0.48042 z"
           id="path1362" />
        <path
           style="fill:#000000;stroke-width:0.194159"
           d="m 183.70926,109.13918 c -5.47444,-0.47774 -10.25304,-1.74487 -15.82397,-4.196 -2.78406,-1.22495 -8.07504,-3.76099 -19.31882,-9.259772 -11.595,-5.670543 -13.89884,-6.642016 -17.76556,-7.491299 -2.01512,-0.442599 -5.29513,-0.448207 -6.30752,-0.01078 -0.92288,0.398748 -1.62865,1.019797 -1.87031,1.645791 -0.0969,0.250907 -0.35021,1.25568 -0.563,2.23283 -1.78109,8.17872 -5.80929,13.66755 -11.45171,15.60414 -1.33638,0.45867 -2.44893,0.56882 -2.55643,0.25311 -0.0356,-0.10454 -0.021,-1.29738 0.0324,-2.65076 l 0.0971,-2.46069 0.68516,-0.23659 c 3.86952,-1.33622 5.60891,-3.992824 7.77866,-11.88052 0.42861,-1.558112 0.9166,-3.103608 1.08443,-3.434436 0.94947,-1.871635 3.02853,-3.507611 5.39393,-4.244396 1.08068,-0.336613 1.83509,-0.424677 3.60001,-0.42024 2.61454,0.0066 4.41796,0.349981 8.04635,1.532186 4.38465,1.42861 7.62709,2.888073 20.30087,9.13768 12.70046,6.26276 17.3974,8.396086 21.48959,9.760496 6.03,2.0105 11.54977,2.89266 16.90537,2.70178 3.49621,-0.12461 3.6084,-0.0368 1.65035,1.29214 -2.80665,1.90484 -6.35577,2.56612 -11.40684,2.12533 z"
           id="path1360" />
        <path
           style="fill:#000000;stroke-width:0.194159"
           d="m 29.255715,108.12768 c 4.366364,-0.78187 8.344219,-2.06135 12.680374,-4.07866 0.940712,-0.43765 1.738659,-0.79572 1.773216,-0.79572 0.0825,0 5.056955,-2.40768 18.844691,-9.121013 9.618984,-4.683539 13.072032,-6.073709 16.407813,-6.60566 2.24953,-0.358728 5.331996,-0.196719 6.405878,0.336681 1.250971,0.621361 1.687441,1.401874 2.324754,4.157226 1.882215,8.137536 5.939567,13.614856 11.253081,15.191376 1.646108,0.48839 1.566568,0.58118 1.566568,-1.82767 v -2.14055 l -0.533933,-0.19717 c -4.05009,-1.49558 -5.809882,-4.254677 -8.103306,-12.704803 -0.785878,-2.895576 -1.530496,-4.184497 -3.10938,-5.382297 -3.343485,-2.536488 -8.055889,-2.49716 -15.453726,0.128973 -4.86425,1.726743 -7.676559,3.014936 -19.980305,9.152083 -15.044456,7.504224 -19.564726,9.385334 -26.03723,10.835374 -3.859897,0.86473 -6.27028,1.14916 -9.903588,1.16861 l -3.419173,0.0183 0.669285,0.45532 c 1.084689,0.73794 2.66416,1.39165 4.07458,1.68639 1.90491,0.39809 7.60784,0.24832 10.540401,-0.2768 z"
           id="path1358" />
        <path
           style="fill:#000000;stroke-width:0.194159"
           d="m 19.93608,109.16285 c -2.822668,-0.49571 -3.943342,-0.90991 -5.873312,-2.17078 -1.960797,-1.281 -1.834582,-1.38332 1.558055,-1.26308 4.631461,0.16416 9.071803,-0.42419 14.314449,-1.8967 5.4911,-1.54228 9.513464,-3.2956 23.299089,-10.1559 13.213625,-6.575646 16.32683,-7.974528 21.47923,-9.651441 3.352793,-1.091209 5.180154,-1.429357 7.74171,-1.432582 3.242437,-0.0041 5.330527,0.703031 7.297011,2.47107 1.273833,1.145286 1.873582,2.295099 2.605073,4.994323 2.149129,7.930369 3.798236,10.70689 7.263956,12.22996 l 1.473229,0.64744 v 2.58605 2.58606 h -0.54724 c -1.495113,0 -4.720319,-1.47114 -6.513477,-2.97106 -3.062943,-2.56205 -5.665688,-7.503841 -6.917193,-13.133566 -0.224228,-1.008666 -0.591664,-2.161277 -0.816522,-2.561359 -0.748804,-1.332314 -3.010042,-1.907754 -6.024636,-1.533146 -4.374557,0.543602 -7.009544,1.590828 -20.051415,7.969054 -14.009241,6.851327 -14.97587,7.314417 -19.068277,9.135157 -6.101408,2.71457 -11.543576,3.99738 -17.627787,4.15517 -1.7086,0.0443 -3.324974,0.0422 -3.591943,-0.005 z"
           id="path1356" />
        <path
           style="fill:#000000;stroke-width:0.194159"
           d="m 170.48902,109.9272 c 0.15163,-0.39516 -0.20808,-0.84911 -0.67283,-0.84911 -0.36999,0 -0.68197,0.63543 -0.47578,0.96906 0.1931,0.31243 1.01565,0.22653 1.14861,-0.11995 z"
           id="path1354" />
        <path
           style="fill:#000000;stroke-width:0.194159"
           d="m 169.138,110.15898 c -0.38524,-0.58795 -0.1163,-1.21176 0.59993,-1.39152 0.61815,-0.15514 1.05975,0.21074 1.05975,0.87805 0,1.02808 -1.09959,1.36827 -1.65968,0.51347 z"
           id="path1352" />
        <path
           style="fill:#000000;stroke-width:0.194159"
           d="m 170.86493,110.19448 0.39689,-0.53393 -0.39717,-0.53394 c -0.51827,-0.69674 -1.14731,-0.7782 -1.73632,-0.22485 -0.57187,0.53724 -0.5926,1.0209 -0.0663,1.54718 0.53114,0.53115 1.29957,0.4227 1.80292,-0.25446 z"
           id="path1350" />
        <path
           style="fill:#000000;stroke-width:0.194159"
           d="m 183.63532,112.98514 c 0.60006,-0.23161 1.60484,-0.79043 2.23283,-1.24183 1.12659,-0.80979 1.13405,-0.82138 0.55933,-0.86918 -1.52436,-0.12681 -4.42924,-0.49153 -5.86958,-0.73696 -2.5699,-0.43788 -7.4653,-1.75779 -8.59527,-2.31746 -0.74342,-0.36822 -1.55327,-0.52391 -1.55327,-0.29861 0,0.10882 0.12101,0.19786 0.26891,0.19786 0.1479,0 0.41001,0.21535 0.58248,0.47856 0.42387,0.64692 1.06533,0.98309 1.34404,0.70438 0.15342,-0.15343 0.10327,-0.21215 -0.18116,-0.21215 -0.21632,0 -0.59851,-0.21843 -0.84931,-0.4854 -0.51445,-0.5476 -0.39904,-0.61503 0.35836,-0.20939 0.28344,0.15181 0.67471,0.32629 0.86948,0.38774 0.54418,0.17168 0.31799,0.78175 -0.31695,0.85482 -0.40398,0.0465 -0.7496,-0.12296 -1.35745,-0.66556 -0.44851,-0.40036 -0.91283,-0.90002 -1.0318,-1.11036 -0.11898,-0.21034 -0.76811,-0.58986 -1.44252,-0.84339 -2.51236,-0.94448 -5.59216,-2.40461 -15.62132,-7.406071 -5.65973,-2.822465 -10.8365,-5.383197 -11.50392,-5.690514 -0.66742,-0.307318 -1.80325,-0.830113 -2.52407,-1.161765 -7.3238,-3.369739 -12.86321,-4.234461 -14.71878,-2.297659 l -0.53417,0.557553 0.56394,0.21523 c 0.31017,0.118376 2.09294,0.782137 3.96172,1.475024 5.70519,2.115308 6.91776,2.680083 19.22175,8.952842 4.21811,2.15046 9.02354,4.49137 10.67875,5.20204 4.67429,2.00691 8.69149,3.58397 9.12933,3.58397 0.21897,0 0.61569,0.14256 0.8816,0.31679 0.47519,0.31136 0.48061,0.30886 0.31626,-0.14562 -0.39934,-1.10434 0.5745,-2.26522 1.69398,-2.01934 1.21108,0.266 1.6014,1.68004 0.71821,2.60189 l -0.51198,0.53439 2.1866,0.70504 c 2.01139,0.64856 3.78281,1.13574 5.00191,1.37565 0.26697,0.0525 1.49017,0.0715 2.71822,0.0421 1.73232,-0.0415 2.4774,-0.14787 3.32385,-0.47458 z"
           id="path1348" />
        <path
           style="fill:#000000;stroke-width:0.194159"
           d="m 177.88449,113.98864 c -1.18299,-0.16123 -4.33746,-1.02163 -6.50534,-1.77435 -9.13616,-3.17225 -15.66328,-6.02075 -25.44345,-11.10375 -9.94913,-5.170815 -13.04684,-6.586456 -19.30921,-8.824226 -1.7086,-0.610544 -3.18867,-1.187758 -3.28905,-1.282696 -0.11287,-0.106752 -0.0563,-0.437255 0.14823,-0.866191 0.53909,-1.130485 1.68498,-1.53517 4.30577,-1.520637 4.7792,0.0265 7.74133,1.208922 26.21148,10.46309 16.84867,8.44175 21.82626,10.17949 32.27894,11.26895 1.45504,0.15166 1.58715,0.49669 0.54166,1.41465 -2.1195,1.86094 -5.47776,2.6969 -8.93903,2.22516 z"
           id="path1346" />
        <path
           style="fill:#000000;stroke-width:0.194159"
           d="m 32.300396,113.23905 c 3.633638,-0.75055 11.464279,-3.60603 19.332189,-7.04958 2.46084,-1.07704 11.056785,-5.30004 11.503888,-5.65161 0.430018,-0.33814 9.686076,-4.899372 12.134942,-5.979901 1.441631,-0.6361 4.237522,-1.743305 6.213091,-2.460456 1.975568,-0.71715 3.660252,-1.369045 3.74374,-1.448654 0.273143,-0.260452 -0.82112,-1.132172 -1.698548,-1.353111 -2.376942,-0.598521 -5.800887,-0.02121 -10.199873,1.719794 -2.872164,1.136728 -5.145237,2.223063 -16.553686,7.911248 -5.847509,2.91553 -11.876148,5.83363 -13.396976,6.48466 -7.826391,3.35028 -13.354265,4.86327 -19.539242,5.34793 l -1.629692,0.1277 0.658897,0.5431 c 0.962592,0.79343 2.301403,1.48545 3.494518,1.8063 1.399254,0.37628 4.12183,0.37746 5.936752,0.003 z"
           id="path1344" />
        <path
           style="fill:#000000;stroke-width:0.194159"
           d="m 26.567729,113.84081 c -1.535991,-0.34935 -2.689541,-0.90123 -3.924973,-1.87778 -0.907526,-0.71736 -1.286989,-1.52553 -0.716546,-1.52608 0.133485,-1.3e-4 1.422215,-0.13547 2.863847,-0.30076 5.302216,-0.60791 9.490099,-1.68495 15.047328,-3.86987 4.307673,-1.69363 6.731774,-2.8353 17.862634,-8.412636 16.098537,-8.066494 19.124442,-9.242577 23.784487,-9.244355 2.519608,-9.71e-4 3.680537,0.420551 4.208691,1.528098 0.204218,0.42825 0.260924,0.758962 0.148236,0.864497 -0.10038,0.09401 -1.902017,0.792294 -4.003641,1.55175 -4.720372,1.705783 -8.756448,3.492886 -13.938589,6.171765 -12.653638,6.541221 -15.595474,7.933191 -22.916603,10.843291 -4.329264,1.72085 -8.583871,3.19708 -11.261226,3.90733 -2.312281,0.6134 -5.374055,0.76951 -7.153645,0.36475 z"
           id="path1342" />
        <path
           style="fill:#000000;stroke-width:0.194159"
           d="m 164.69452,115.65868 c 0.0883,-0.14283 0.002,-0.17339 -0.25747,-0.0911 -0.47738,0.15152 -1.4743,-0.91951 -1.31704,-1.41496 0.0749,-0.23602 -0.0233,-0.31767 -0.38225,-0.31767 -0.57535,0 -0.67579,0.59222 -0.12983,0.7655 0.19429,0.0617 0.54639,0.37335 0.78245,0.69264 0.43327,0.58604 1.05941,0.76155 1.30414,0.36557 z"
           id="path1340" />
        <path
           style="fill:#000000;stroke-width:0.194159"
           d="m 161.11627,115.91485 c -0.14008,-0.0467 -0.34699,0.007 -0.45982,0.12024 -0.14408,0.14408 -0.0683,0.16935 0.25468,0.0849 0.26254,-0.0687 0.35055,-0.15666 0.20514,-0.20513 z"
           id="path1338" />
        <path
           style="fill:#000000;stroke-width:0.194159"
           d="m 163.22495,116.89297 c -9.7e-4,-0.25149 -1.50755,-1.89874 -1.62897,-1.78098 -0.0635,0.0616 0.18667,0.46513 0.55604,0.89667 0.36938,0.43153 0.61639,0.8398 0.54892,0.90726 -0.0675,0.0675 0.023,0.12267 0.20094,0.12267 0.17798,0 0.32336,-0.0655 0.32307,-0.14562 z"
           id="path1336" />
        <path
           style="fill:#000000;stroke-width:0.194159"
           d="m 166.02336,113.6162 c 0.15061,-0.3925 -0.20706,-0.84911 -0.66514,-0.84911 -0.39114,0 -0.62136,0.44157 -0.45553,0.87372 0.14972,0.39014 0.96841,0.37216 1.12067,-0.0246 z"
           id="path1334" />
        <path
           style="fill:#000000;stroke-width:0.194159"
           d="m 164.81758,114.08737 c -0.12815,-0.12814 -0.23299,-0.46015 -0.23299,-0.7378 0,-0.61053 0.32423,-0.9708 0.87371,-0.9708 0.54948,0 0.87372,0.36027 0.87372,0.9708 0,0.61053 -0.32424,0.97079 -0.87372,0.97079 -0.22425,0 -0.51258,-0.10484 -0.64072,-0.23299 z"
           id="path1332" />
        <path
           style="fill:#000000;stroke-width:0.194159"
           d="m 160.63669,114.7734 c -0.28447,-0.28447 -0.12071,-0.84135 0.24742,-0.84135 0.4956,0 0.68637,0.33423 0.39272,0.68806 -0.25633,0.30885 -0.44049,0.35295 -0.64014,0.15329 z"
           id="path1330" />
        <path
           style="fill:#000000;stroke-width:0.194159"
           d="m 164.96803,115.28557 c -0.46906,-0.53701 -0.92062,-1.08308 -1.00348,-1.21349 -0.30408,-0.47859 -0.1534,-1.32583 0.31998,-1.79921 0.64133,-0.64134 1.45685,-0.62483 2.06219,0.0418 l 0.4707,0.51833 -0.48006,-0.32417 c -1.10416,-0.7456 -2.28847,-0.10307 -2.16409,1.17409 0.0127,0.12992 0.41617,0.6789 0.89672,1.21997 0.87378,0.98383 1.08732,1.11342 0.63118,0.38301 -0.21175,-0.33906 -0.17404,-0.44347 0.29709,-0.82254 0.29679,-0.2388 0.61685,-0.6963 0.71124,-1.01666 l 0.17162,-0.58248 0.0167,0.64029 c 0.0114,0.43814 -0.12833,0.77528 -0.44265,1.06787 -0.35252,0.32815 -0.41306,0.50047 -0.26034,0.74098 0.20896,0.32908 0.0722,0.94865 -0.20937,0.94865 -0.0905,0 -0.54837,-0.43938 -1.01743,-0.97639 z"
           id="path1328" />
        <path
           style="fill:#000000;stroke-width:0.194159"
           d="m 174.13737,118.38166 c 1.29529,-0.26462 3.89544,-1.53818 4.90225,-2.40113 l 0.76681,-0.65725 -0.76681,-0.12737 c -3.65982,-0.60789 -7.6478,-1.62124 -10.3306,-2.62501 -1.07991,-0.40404 -1.09455,-0.40449 -0.7494,-0.0231 0.19362,0.21394 0.29463,0.48186 0.22447,0.59538 -0.2101,0.33995 -0.85307,0.23357 -1.0731,-0.17756 -0.16764,-0.31325 -0.15102,-0.36305 0.0903,-0.27047 0.16266,0.0624 0.29573,0.19151 0.29573,0.28687 0,0.0954 0.0894,0.17339 0.19864,0.17339 0.10925,0 0.0653,-0.20356 -0.0978,-0.45236 -0.16302,-0.24879 -0.23056,-0.52492 -0.1501,-0.6136 0.0805,-0.0887 0.0431,-0.10213 -0.083,-0.0299 -0.1261,0.0723 -0.28416,0.0426 -0.35124,-0.0659 -0.0671,-0.10853 -0.21486,-0.19732 -0.32842,-0.19732 -0.12222,0 -0.0977,0.13405 0.06,0.32851 0.22981,0.28331 0.2264,0.30506 -0.0248,0.15807 -0.16018,-0.0937 -0.50967,-0.32691 -0.77664,-0.51815 -0.26697,-0.19124 -1.77058,-0.87033 -3.34137,-1.50908 -4.73333,-1.92478 -8.9092,-3.89747 -18.88984,-8.92358 -9.06408,-4.564547 -14.44107,-7.029506 -18.21789,-8.351573 -0.94289,-0.33006 -1.7914,-0.60011 -1.88556,-0.60011 -0.0942,0 -0.26478,0.37133 -0.37915,0.825177 -0.11437,0.453846 -0.41917,1.521234 -0.67733,2.371971 -0.25817,0.850739 -0.45192,1.558139 -0.43056,1.572 0.0214,0.01386 1.26203,0.665039 2.75706,1.447065 1.49502,0.782025 3.46088,1.83101 4.36858,2.33108 0.90769,0.50008 2.26195,1.24197 3.00946,1.64867 0.74752,0.40669 3.49972,1.96344 6.11601,3.45944 7.54314,4.31317 13.08277,6.96405 19.10194,9.14087 2.32542,0.84098 2.52582,0.88245 2.84941,0.58961 0.47541,-0.43024 1.06054,-0.28464 1.04109,0.25905 -0.01,0.275 0.099,0.43079 0.30094,0.43079 0.174,0 0.43507,0.10922 0.58016,0.2427 0.14508,0.13349 -0.0232,-0.12418 -0.37405,-0.5726 -0.64618,-0.82597 -0.68817,-1.41753 -0.10061,-1.41753 0.24228,0 0.2806,-0.13607 0.18373,-0.65244 -0.092,-0.4906 -0.0476,-0.68115 0.17914,-0.76816 0.16585,-0.0636 0.35318,-0.0322 0.4163,0.07 0.0631,0.10212 0.3375,0.18568 0.60974,0.18568 0.42228,0 0.47821,0.0669 0.38074,0.4552 -0.0806,0.3213 0.0131,0.57484 0.31873,0.86196 0.41828,0.39295 0.49794,0.43027 0.91838,0.43027 0.31672,0 0.22071,0.7249 -0.11296,0.85294 -0.5664,0.21735 -0.7919,0.12192 -1.61237,-0.68235 -1.01211,-0.99211 -1.29943,-0.85452 -0.33167,0.15883 0.38788,0.40615 0.75505,0.92831 0.81593,1.16035 0.0943,0.35948 0.4313,0.49524 2.2777,0.91762 4.07832,0.93296 6.23322,1.10984 8.32199,0.68311 z"
           id="path1326" />
        <path
           style="fill:#000000;stroke-width:0.194159"
           d="m 169.24441,118.95715 c -8.45172,-1.35965 -19.50968,-5.74947 -30.77422,-12.21683 -3.88816,-2.23233 -9.51269,-5.33073 -15.29002,-8.422856 -0.93439,-0.500102 -1.6989,-0.981088 -1.6989,-1.068856 0,-0.08777 0.13637,-0.541894 0.30303,-1.009167 0.16667,-0.467273 0.50179,-1.635932 0.74471,-2.597019 0.35312,-1.397072 0.51755,-1.758773 0.82009,-1.803994 0.50895,-0.07607 3.66564,1.038382 7.3987,2.612078 1.68442,0.710077 7.69327,3.619919 13.35301,6.466314 10.16164,5.11051 15.48177,7.58676 20.65097,9.612 5.21522,2.04326 10.34502,3.53592 13.90934,4.04731 2.18418,0.31337 2.26248,0.57296 0.58248,1.93094 -2.71816,2.19714 -6.22707,3.05692 -9.99919,2.45008 z"
           id="path1324" />
        <path
           style="fill:#000000;stroke-width:0.194159"
           d="m 42.070214,118.01387 c 2.630483,-0.56082 7.047596,-1.87968 10.108626,-3.01823 6.243309,-2.32221 11.134914,-4.668 18.432758,-8.83952 6.095498,-3.48425 10.380681,-5.83133 16.436953,-9.002856 0.0539,-0.02822 -1.302098,-4.65299 -1.39006,-4.740951 -0.146173,-0.146174 -3.547242,1.105444 -7.183451,2.643561 -1.922175,0.81308 -7.783979,3.64192 -13.026233,6.286306 -10.473682,5.28332 -14.663441,7.2415 -20.077889,9.38386 -5.918378,2.34176 -10.636323,3.76344 -14.544159,4.38266 l -1.438423,0.22792 0.758866,0.65625 c 0.9559,0.82663 3.245509,1.9892 4.587096,2.32915 1.446726,0.36658 4.839562,0.22406 7.335916,-0.30815 z"
           id="path1322" />
        <path
           style="fill:#000000;stroke-width:0.194159"
           d="m 34.81673,118.85708 c -1.745317,-0.37433 -3.441836,-1.19193 -4.881458,-2.35251 -1.66957,-1.34596 -1.597921,-1.62837 0.485398,-1.91321 5.637358,-0.77076 13.685314,-3.58349 23.978645,-8.38043 1.601812,-0.74648 6.975165,-3.40651 11.940783,-5.91119 4.965618,-2.504667 10.394459,-5.131659 12.064091,-5.837757 3.689776,-1.560427 6.914716,-2.699952 7.424855,-2.623555 0.304869,0.04566 0.480651,0.44962 0.911726,2.095232 0.293722,1.121269 0.629167,2.284629 0.745433,2.585248 0.300625,0.777296 0.263738,1.060994 -0.155245,1.193973 -0.904465,0.287067 -10.627691,5.583169 -17.593076,9.582699 -10.42316,5.98499 -21.230192,10.22914 -29.512179,11.59006 -2.146244,0.35267 -3.668948,0.34464 -5.408973,-0.0286 z"
           id="path1320" />
        <path
           style="fill:#000000;stroke-width:0.194159"
           d="m 159.89701,119.00145 c 0.35771,-0.22666 0.0994,-0.99206 -0.33481,-0.99206 -0.52978,0 -0.81561,0.38913 -0.59231,0.80638 0.20769,0.38807 0.51163,0.44894 0.92712,0.18568 z"
           id="path1318" />
        <path
           style="fill:#000000;stroke-width:0.194159"
           d="m 157.70337,120.83607 c 0.30177,-0.22409 0.33397,-0.34986 0.16157,-0.63102 -0.26969,-0.43981 -0.8424,-0.45406 -1.11137,-0.0276 -0.14809,0.23476 -0.13406,0.40786 0.0512,0.63102 0.31406,0.37842 0.4218,0.38174 0.89865,0.0277 z"
           id="path1316" />
        <path
           style="fill:#000000;stroke-width:0.194159"
           d="m 153.1292,122.02132 c 0,-0.0336 -0.20962,-0.25799 -0.46582,-0.49868 l -0.46582,-0.43761 0.0288,0.4625 c 0.0205,0.32953 0.15444,0.47291 0.46582,0.49868 0.24036,0.0199 0.43702,0.009 0.43702,-0.0249 z"
           id="path1314" />
        <path
           style="fill:#000000;stroke-width:0.194159"
           d="m 154.32169,121.02547 c 0.32161,-0.2706 0.74689,-0.49201 0.94508,-0.49201 0.20479,0 0.4178,-0.18857 0.49346,-0.43686 0.0732,-0.24027 0.26291,-0.58481 0.42154,-0.76563 0.3626,-0.41335 1.35314,-0.64225 1.66374,-0.38447 0.1749,0.14515 0.23736,0.0382 0.24497,-0.41969 0.006,-0.33798 0.0493,-0.72852 0.0971,-0.86787 0.0593,-0.17297 -0.77569,-0.5785 -2.63137,-1.27799 -5.47943,-2.06544 -10.6882,-4.53448 -15.70926,-7.44643 -4.95956,-2.87629 -14.04933,-7.88032 -17.16069,-9.447178 -1.2263,-0.617552 -1.38683,-0.65599 -1.48238,-0.354934 -0.0589,0.18569 -0.49651,1.020852 -0.97239,1.855902 l -0.86524,1.5183 0.58402,0.3248 c 1.05185,0.585 3.52499,2.40337 5.99668,4.40906 9.10022,7.3845 15.49296,11.22 22.81369,13.68769 3.12086,1.05199 3.16792,1.05931 3.05638,0.4758 -0.0791,-0.41376 -0.0203,-0.48219 0.41407,-0.48219 0.36416,0 0.62936,0.18924 0.94489,0.67424 0.36536,0.5616 0.44886,0.61136 0.49982,0.29787 0.0336,-0.20701 0.3243,-0.59779 0.64591,-0.8684 z"
           id="path1312" />
        <path
           style="fill:#000000;stroke-width:0.194159"
           d="m 154.81106,121.84402 c -0.0539,-0.13348 -0.0979,-0.0243 -0.0979,0.2427 0,0.26697 0.0441,0.37619 0.0979,0.2427 0.0539,-0.13348 0.0539,-0.35191 0,-0.4854 z"
           id="path1310" />
        <path
           style="fill:#000000;stroke-width:0.194159"
           d="m 154.53298,121.55278 c 0.29197,-0.35961 0.52879,-0.29627 0.72592,0.19416 0.15938,0.39653 0.17673,0.3786 0.1879,-0.19416 0.0138,-0.70598 -0.24436,-0.7987 -0.91528,-0.32876 -0.27882,0.19528 -0.42355,0.4873 -0.409,0.82517 0.0175,0.40578 0.0439,0.43594 0.11797,0.13461 0.0525,-0.21357 0.18412,-0.49753 0.29249,-0.63102 z"
           id="path1308" />
        <path
           style="fill:#000000;stroke-width:0.194159"
           d="m 157.84459,122.81482 c 0.0483,-0.13349 -0.0513,-0.40229 -0.22152,-0.59734 -0.28668,-0.32855 -0.2741,-0.3816 0.17095,-0.72109 l 0.4804,-0.36646 -0.70223,0.11129 c -0.57508,0.0911 -0.75577,0.0349 -0.99788,-0.31081 -0.29428,-0.42014 -0.25497,-1.08234 0.0764,-1.28714 0.0957,-0.0591 0.38811,-0.14633 0.64989,-0.1938 0.5669,-0.1028 1.19284,0.67868 0.98366,1.2281 -0.085,0.22332 -0.0645,0.27417 0.0593,0.14712 0.10408,-0.10679 0.21847,-0.41259 0.25421,-0.67956 0.056,-0.41845 0.15019,-0.47687 0.68275,-0.42361 0.75892,0.0759 1.4209,-0.5107 1.4209,-1.2591 0,-0.60318 -0.16688,-0.51738 -0.29506,0.15171 -0.2341,1.22198 -1.82846,1.11001 -1.83772,-0.12906 -0.002,-0.21891 0.10187,-0.50287 0.23002,-0.63102 0.17704,-0.17703 0.17793,-0.23299 0.004,-0.23299 -0.21277,0 -0.3167,0.27338 -0.47979,1.26204 -0.0471,0.28539 -0.19061,0.37344 -0.5415,0.33221 -0.78495,-0.0923 -1.27122,0.11456 -1.51202,0.64306 -0.34799,0.76376 -0.28934,0.96827 0.55872,1.94813 0.4324,0.49959 0.73296,0.96156 0.66793,1.0266 -0.13695,0.13695 -1.38334,-1.2397 -1.64259,-1.81425 -0.13318,-0.29517 -0.17668,-0.15544 -0.18135,0.58247 -0.006,0.91935 0.0102,0.95022 0.30135,0.58248 0.29836,-0.37679 0.30477,-0.37264 0.21604,0.13975 -0.0503,0.29043 -0.0167,0.48186 0.0747,0.42539 0.0914,-0.0565 0.16745,-0.2504 0.16908,-0.43098 0.002,-0.27486 0.032,-0.2824 0.18135,-0.0464 0.0981,0.15508 0.13938,0.34506 0.0917,0.42216 -0.0477,0.0771 0.0673,0.18036 0.25551,0.22945 0.61397,0.16016 0.79382,0.13808 0.88312,-0.1084 z"
           id="path1306" />
        <path
           style="fill:#000000;stroke-width:0.194159"
           d="m 164.48751,122.82842 c 1.71518,-0.26006 3.1982,-0.80451 4.56274,-1.67509 1.24721,-0.79572 1.31311,-0.74644 -1.74743,-1.30661 -1.01449,-0.18567 -2.86785,-0.61769 -4.11859,-0.96004 -1.25075,-0.34235 -2.22526,-0.54346 -2.16559,-0.44691 0.0597,0.0965 0.004,0.42859 -0.12443,0.73786 -0.27392,0.6613 -1.39417,1.14598 -1.82407,0.7892 -0.20378,-0.16913 -0.23887,-0.11789 -0.16912,0.24698 0.0617,0.32265 -0.0975,0.67168 -0.53211,1.16665 -0.34106,0.38846 -0.52369,0.70628 -0.40584,0.70628 0.11785,0 0.21427,0.21364 0.21427,0.47476 0,0.42671 0.0933,0.48213 0.92225,0.5476 1.25217,0.0989 3.73872,-0.0306 5.38792,-0.28068 z"
           id="path1304" />
        <path
           style="fill:#000000;stroke-width:0.194159"
           d="m 156.33283,123.33269 c -10.42255,-1.60871 -18.5707,-5.81095 -31.47906,-16.23473 -2.55214,-2.06091 -4.33557,-3.34095 -5.45971,-3.91866 -0.76273,-0.39198 -0.78353,-0.65658 -0.12705,-1.61626 0.27718,-0.4052 0.8025,-1.32648 1.16739,-2.047296 0.36489,-0.720816 0.70306,-1.310574 0.75149,-1.310574 0.40763,0 9.51745,4.88441 16.21643,8.69475 8.60468,4.8943 12.60044,6.82937 19.12467,9.26172 4.73605,1.76568 11.70667,3.59519 13.69807,3.59519 1.40295,0 0.11014,1.55891 -2.13972,2.58014 -2.73774,1.2427 -7.52474,1.64827 -11.75251,0.99572 z"
           id="path1302" />
        <path
           style="fill:#000000;stroke-width:0.194159"
           d="m 77.958089,105.99514 c 0.142827,-0.0905 0.230198,-0.37315 0.194159,-0.62804 -0.05673,-0.40124 -0.175268,-0.46584 -0.883224,-0.48134 -0.449735,-0.01 -0.768713,0.0614 -0.708842,0.15823 0.05987,0.0969 0.375768,0.14861 0.701996,0.11498 0.444941,-0.0459 0.605627,0.0237 0.643117,0.2786 0.02749,0.18686 -0.09519,0.42447 -0.272617,0.52803 -0.177426,0.10356 -0.235222,0.1896 -0.128434,0.19122 0.106787,0.002 0.311017,-0.0711 0.453845,-0.16168 z"
           id="path1300" />
        <path
           style="fill:#000000;stroke-width:0.194159"
           d="m 75.933809,106.88588 c 0.293303,-0.46499 -0.335118,-1.09341 -0.8001,-0.8001 -0.466609,0.29432 -0.507817,0.57161 -0.139664,0.93976 0.368152,0.36815 0.645435,0.32694 0.939764,-0.13966 z"
           id="path1298" />
        <path
           style="fill:#000000;stroke-width:0.194159"
           d="m 76.153955,107.43655 c 0.262114,-0.26211 0.476573,-0.62781 0.476573,-0.81266 0,-0.37752 -0.732209,-1.23535 -1.053179,-1.23387 -0.11487,5.8e-4 0.03163,0.19712 0.325552,0.43686 0.459179,0.37453 0.512037,0.51789 0.375492,1.01837 -0.120359,0.44115 -0.288202,0.59766 -0.691767,0.64505 -0.706394,0.0829 -1.088805,-0.26595 -1.105495,-1.0086 -0.01113,-0.49554 -0.04132,-0.53638 -0.164098,-0.22203 -0.206385,0.52843 -0.04587,1.02833 0.439305,1.36816 0.56707,0.39719 0.847535,0.35881 1.397617,-0.19128 z"
           id="path1296" />
        <path
           style="fill:#000000;stroke-width:0.194159"
           d="m 74.883096,108.58215 c 0,-0.0517 -0.198663,-0.0441 -0.441473,0.0169 -0.614395,0.15421 -1.369439,-0.85075 -1.186578,-1.57932 l 0.12785,-0.5094 -0.511933,0.33543 c -0.281564,0.18449 -0.511934,0.37673 -0.511934,0.42719 0,0.0505 0.415015,0.46818 0.922256,0.92825 0.72199,0.65485 0.996038,0.79724 1.262034,0.65572 0.186878,-0.0994 0.339778,-0.22305 0.339778,-0.27472 z"
           id="path1294" />
        <path
           style="fill:#000000;stroke-width:0.194159"
           d="m 72.442237,109.78325 c 0.162406,-0.26512 0.129372,-0.39805 -0.150621,-0.60613 -0.197258,-0.14659 -0.472604,-0.2228 -0.611884,-0.16935 -0.405404,0.15556 -0.488105,0.82539 -0.127823,1.0353 0.404457,0.23565 0.626507,0.17085 0.890328,-0.25982 z"
           id="path1292" />
        <path
           style="fill:#000000;stroke-width:0.194159"
           d="m 71.431435,110.3291 c -0.237336,-0.16623 -0.43152,-0.50502 -0.43152,-0.75286 0,-1.03724 1.48985,-1.22794 1.837026,-0.23514 0.16661,0.47645 0.130019,0.60592 -0.260635,0.92226 -0.549793,0.44519 -0.599092,0.44802 -1.144871,0.0657 z"
           id="path1290" />
        <path
           style="fill:#000000;stroke-width:0.194159"
           d="m 72.729495,110.3591 c 0.257096,-0.27366 0.41149,-0.64672 0.373625,-0.90277 -0.08895,-0.60145 -0.920532,-1.18052 -1.479964,-1.03057 -0.50248,0.13469 -1.097403,1.12293 -0.892882,1.48319 0.577911,1.01796 1.310774,1.18297 1.999221,0.45015 z"
           id="path1288" />
        <path
           style="fill:#000000;stroke-width:0.194159"
           d="m 67.78041,113.81419 c 0.377851,-0.14499 0.400828,-0.72762 0.04049,-1.02667 -0.546768,-0.45378 -1.331679,0.33113 -0.877902,0.8779 0.24603,0.29645 0.387219,0.32153 0.837412,0.14877 z"
           id="path1286" />
        <path
           style="fill:#000000;stroke-width:0.194159"
           d="m 66.750402,114.07053 c -0.30657,-0.30657 -0.267981,-1.21287 0.06335,-1.48785 0.153723,-0.12758 0.523445,-0.20381 0.821602,-0.1694 0.682723,0.0788 1.084578,0.97179 0.636346,1.41407 -0.376494,0.37149 -1.252893,0.51159 -1.5213,0.24318 z"
           id="path1284" />
        <path
           style="fill:#000000;stroke-width:0.194159"
           d="m 67.826383,115.32441 c -0.440568,-0.48682 -0.403925,-0.70992 0.158709,-0.96628 0.885049,-0.40325 0.916087,-1.68377 0.05252,-2.16684 -0.478285,-0.26755 -0.586717,-0.26762 -1.063937,-5.8e-4 -0.292256,0.16348 -0.612968,0.52925 -0.712694,0.81282 -0.157422,0.44763 -0.07148,0.65796 0.652064,1.59581 0.458363,0.59412 0.923675,1.08022 1.034027,1.08022 0.110352,0 0.05604,-0.15978 -0.120691,-0.35506 z"
           id="path1282" />
        <path
           style="fill:#000000;stroke-width:0.194159"
           d="m 59.835768,120.3393 c 0,-0.35584 -0.116833,-0.50199 -0.437726,-0.54756 -0.262557,-0.0373 -0.484541,0.0598 -0.55471,0.2427 -0.193319,0.50378 0.07764,0.92016 0.55471,0.85241 0.320893,-0.0456 0.437726,-0.19171 0.437726,-0.54755 z"
           id="path1280" />
        <path
           style="fill:#000000;stroke-width:0.194159"
           d="m 61.950634,118.8091 c 0.308251,-0.34061 0.30876,-0.38702 0.0076,-0.68822 -0.365786,-0.36579 -0.645777,-0.3278 -0.932336,0.12649 -0.139141,0.22058 -0.122024,0.40201 0.05844,0.61946 0.328886,0.39628 0.463589,0.38731 0.866339,-0.0577 z"
           id="path1278" />
        <path
           style="fill:#000000;stroke-width:0.194159"
           d="m 60.748316,119.13551 c -0.128145,-0.12814 -0.232991,-0.41647 -0.232991,-0.64072 0,-0.54948 0.360262,-0.87372 0.970795,-0.87372 0.610533,0 0.970796,0.32424 0.970796,0.87372 0,0.54947 -0.360263,0.87371 -0.970796,0.87371 -0.277647,0 -0.609659,-0.10484 -0.737804,-0.23299 z"
           id="path1276" />
        <path
           style="fill:#000000;stroke-width:0.194159"
           d="m 58.811096,121.202 c -0.503282,-0.35251 -0.56432,-1.09049 -0.126414,-1.52839 0.689143,-0.68914 1.74238,-0.14386 1.599712,0.82821 -0.04958,0.33776 -0.0179,0.61411 0.0704,0.61411 0.08829,0 0.160533,-0.25141 0.160533,-0.5587 0,-0.63858 0.392327,-1.05535 0.833934,-0.88589 0.462816,0.1776 1.044415,-0.2304 1.276185,-0.89525 0.184476,-0.52919 0.153321,-0.65666 -0.261991,-1.07198 -0.259251,-0.25925 -0.622604,-0.47136 -0.807453,-0.47136 -0.538434,0 -1.234834,0.78558 -1.234834,1.39296 0,0.49047 -0.06746,0.54863 -0.636355,0.54863 -0.925453,0 -1.499395,0.47244 -1.499395,1.23421 0,0.6791 0.289569,1.0957 0.761591,1.0957 0.2065,0 0.16553,-0.0911 -0.135911,-0.30225 z"
           id="path1274" />
        <path
           style="fill:#000000;stroke-width:0.194159"
           d="m 56.982964,121.59619 c -0.05978,-0.0598 -0.168346,0.048 -0.241259,0.23947 -0.105366,0.27671 -0.08306,0.29901 0.108691,0.10869 0.132692,-0.13171 0.192347,-0.28838 0.132568,-0.34816 z"
           id="path1272" />
        <path
           style="fill:#000000;stroke-width:0.194159"
           d="m 56.494242,121.69841 c 0.125137,-0.47853 0.659648,-0.51176 0.780698,-0.0485 0.05463,0.20904 0.09746,0.13434 0.111317,-0.19416 0.02223,-0.52697 -0.240382,-0.67655 -0.676508,-0.38534 -0.310826,0.20754 -0.705064,1.01636 -0.495401,1.01636 0.09809,0 0.224042,-0.17474 0.279894,-0.38832 z"
           id="path1270" />
        <path
           style="fill:#000000;stroke-width:0.194159"
           d="m 55.272065,122.32943 c -0.0016,-0.24848 -0.928752,-1.31678 -1.043922,-1.2029 -0.127333,0.1259 0.684456,1.34021 0.899268,1.34516 0.08009,0.002 0.145184,-0.0622 0.144654,-0.14226 z"
           id="path1268" />
        <path
           style="fill:#000000;stroke-width:0.194159"
           d="m 63.136472,114.32036 c 0.066,-0.10678 0.02747,-0.19415 -0.08562,-0.19415 -0.11309,0 -0.205618,0.0874 -0.205618,0.19415 0,0.10679 0.03853,0.19416 0.08562,0.19416 0.04709,0 0.13962,-0.0874 0.205618,-0.19416 z"
           id="path1266" />
        <path
           style="fill:#000000;stroke-width:0.194159"
           d="m 62.54248,114.49589 c -0.205182,-0.33199 0.442199,-0.89038 0.715466,-0.61711 0.12173,0.12173 0.168783,0.35825 0.104561,0.52561 -0.134376,0.35018 -0.626237,0.40506 -0.820027,0.0915 z"
           id="path1264" />
        <path
           style="fill:#000000;stroke-width:0.194159"
           d="m 64.592665,116.75183 c 0,-0.0509 -0.21373,-0.23265 -0.474957,-0.40381 -0.371992,-0.24374 -0.550882,-0.26286 -0.825176,-0.0882 -0.317526,0.2022 -0.31028,0.21462 0.07762,0.13311 0.235309,-0.0495 0.584795,0.0291 0.776636,0.17463 0.388617,0.29472 0.445882,0.31838 0.445882,0.18427 z"
           id="path1262" />
        <path
           style="fill:#000000;stroke-width:0.194159"
           d="m 64.544715,115.86207 c -0.454171,-0.52729 -0.85456,-0.87244 -0.889755,-0.767 -0.08238,0.2468 1.37583,1.9334 1.569312,1.81511 0.08042,-0.0492 -0.225386,-0.52081 -0.679557,-1.04811 z"
           id="path1260" />
        <path
           style="fill:#000000;stroke-width:0.194159"
           d="m 64.217856,117.70187 c 0.39037,-0.47036 -0.02002,-0.95452 -0.80909,-0.95452 -0.465992,0 -0.671165,-0.0969 -0.719097,-0.33978 -0.04106,-0.20804 0.05137,-0.33977 0.23841,-0.33977 0.168009,0 0.305474,-0.0925 0.305474,-0.20562 0,-0.11309 0.100871,-0.14328 0.224158,-0.0671 0.142752,0.0882 0.17129,0.053 0.07858,-0.097 -0.229217,-0.37088 -0.982292,0.22842 -0.982292,0.78172 0,0.39338 0.107753,0.47063 0.728097,0.52197 0.559747,0.0463 0.728096,0.14405 0.728096,0.42262 0,0.1993 -0.1529,0.40232 -0.339778,0.45116 -0.286668,0.0749 -0.290384,0.0923 -0.02377,0.11131 0.173801,0.0124 0.430851,-0.11585 0.571218,-0.28499 z"
           id="path1258" />
        <path
           style="fill:#000000;stroke-width:0.194159"
           d="m 63.268589,117.96085 c 0.04577,-0.32227 -0.07879,-0.49839 -0.47487,-0.67144 -0.295305,-0.12902 -0.590749,-0.37486 -0.656542,-0.54632 -0.182331,-0.47514 0.255655,-1.25777 0.703895,-1.25777 0.223007,0 0.392481,-0.12839 0.392481,-0.29733 0,-0.46994 0.558528,-0.56108 0.999418,-0.16308 0.221363,0.19983 0.667339,0.69732 0.991056,1.10554 0.538207,0.67869 0.562135,0.76865 0.279593,1.05119 -0.254721,0.25473 -0.361848,0.26512 -0.60997,0.0592 -0.258682,-0.21469 -0.300984,-0.17919 -0.300984,0.25254 0,0.51095 -0.464842,0.90433 -1.068614,0.90433 -0.21821,0 -0.298104,-0.13663 -0.255463,-0.43686 z"
           id="path1256" />
        <path
           style="fill:#000000;stroke-width:0.194159"
           d="m 50.516134,123.05484 c 1.174662,-0.10809 2.592598,-0.28857 3.15097,-0.40107 l 1.015221,-0.20455 -0.469816,-0.50667 c -0.361969,-0.39037 -0.426311,-0.58797 -0.280294,-0.86081 0.270867,-0.50612 0.432165,-0.45023 1.221144,0.42307 0.642104,0.71073 0.702149,0.73853 0.702149,0.32508 0,-1.14015 1.779825,-1.76153 1.905947,-0.66542 0.03379,0.29367 0.152353,0.53394 0.263472,0.53394 0.114164,0 0.143594,-0.14778 0.06767,-0.33978 -0.403413,-1.02009 -0.347413,-1.57223 0.21205,-2.09073 0.409342,-0.37936 0.711688,-0.49536 1.155985,-0.44349 0.54473,0.0636 0.601662,0.0194 0.601662,-0.46696 0,-1.21053 1.420438,-1.73851 2.465523,-0.91645 1.029882,0.81011 0.382555,2.50998 -0.955822,2.50998 -0.505301,0 -0.64009,0.089 -0.713086,0.47086 l -0.09001,0.47085 0.98963,-0.38741 c 7.440949,-2.9129 12.937091,-6.32924 21.958811,-13.64933 1.28145,-1.03975 3.171897,-2.45287 4.200995,-3.14027 l 1.871087,-1.24982 -0.853624,-1.49792 c -0.469494,-0.82385 -0.901943,-1.650151 -0.960996,-1.836216 -0.12832,-0.404299 -0.112729,-0.411497 -6.101973,2.817266 -3.799683,2.04838 -5.158529,2.8457 -4.439409,2.60488 0.466862,-0.15635 1.138705,0.39755 1.138705,0.93879 0,0.53585 -0.80273,1.16738 -1.260535,0.9917 -0.161007,-0.0618 -0.292738,-0.28047 -0.292738,-0.48597 0,-0.2055 -0.1529,-0.43185 -0.339778,-0.50299 -0.272435,-0.10372 -0.291676,-0.0809 -0.09708,0.11513 0.133484,0.13448 0.242699,0.61524 0.242699,1.06837 0,0.63127 -0.100883,0.89454 -0.431521,1.12613 -1.055246,0.73912 -2.603696,0.0622 -2.438135,-1.06583 0.04464,-0.30416 0.0096,-0.50878 -0.07786,-0.45472 -0.08747,0.0541 -0.159028,0.31155 -0.159028,0.57222 0,0.26067 -0.08679,0.47394 -0.192876,0.47394 -0.106081,0 -0.003,0.21843 0.229174,0.4854 0.232127,0.26696 0.630797,0.48539 0.885936,0.48539 0.370013,0 0.451333,0.0884 0.401843,0.43686 -0.07402,0.52117 -0.975034,0.70891 -1.465105,0.30527 -0.277173,-0.22829 -0.296399,-0.19531 -0.173558,0.29777 0.267188,1.07245 -0.802035,2.00451 -1.871733,1.63161 -1.087883,-0.37924 -1.414893,-1.46047 -0.711975,-2.35408 0.478338,-0.60811 1.29399,-0.6768 2.079948,-0.17516 0.484662,0.30934 0.506152,0.30994 0.266874,0.008 -0.143126,-0.18089 -0.421469,-0.38008 -0.618537,-0.44262 -0.197067,-0.0626 -0.385763,-0.23069 -0.419323,-0.37365 -0.04182,-0.17814 -0.717515,0.11493 -2.147382,0.93138 -1.536847,0.87753 -2.055212,1.26801 -1.968101,1.48254 0.06504,0.16018 0.158517,0.46598 0.207723,0.67956 0.07141,0.30994 0.0049,0.28055 -0.329461,-0.14562 -0.23041,-0.29367 -0.50486,-0.53394 -0.60989,-0.53394 -0.105029,0 0.12815,0.38944 0.518181,0.86542 0.390029,0.47598 0.658955,0.94662 0.597614,1.04587 -0.06134,0.0993 0.01008,0.28138 0.158688,0.40472 0.20649,0.17137 0.289897,0.16524 0.353649,-0.026 0.05397,-0.16191 0.165886,-0.0962 0.316951,0.18606 0.128438,0.23998 0.316019,0.43634 0.41685,0.43634 0.100829,0 -0.08114,-0.37521 -0.404379,-0.83379 -0.977531,-1.38683 -0.400929,-1.9286 1.081105,-1.01579 0.42715,0.26309 0.902956,0.48107 1.057348,0.4844 0.292019,0.006 -1.169545,-0.97951 -1.813524,-1.22321 -0.23761,-0.0899 -0.503396,-0.0172 -0.750661,0.20526 -0.368516,0.3316 -0.380092,0.32996 -0.310086,-0.0439 0.12504,-0.6677 1.294618,-0.62264 2.215227,0.0853 1.382263,1.06301 1.361571,1.03478 0.907072,1.23758 -0.317698,0.14176 -0.621439,0.0498 -1.382696,-0.4186 -1.030462,-0.63405 -1.455051,-0.53058 -0.909486,0.22163 0.17046,0.23503 0.447916,0.62006 0.616564,0.85564 0.168649,0.23558 0.250261,0.51953 0.18136,0.63102 -0.218495,0.35353 -0.811691,0.21902 -1.032658,-0.23416 -0.189973,-0.38962 -0.201223,-0.36946 -0.104036,0.18638 0.08923,0.51033 0.0066,0.72557 -0.455954,1.18816 -0.509605,0.50961 -0.53865,0.6045 -0.296601,0.96904 0.532873,0.80255 -0.304533,1.13309 -0.949133,0.37464 -0.245751,-0.28915 -0.333239,-0.32701 -0.258764,-0.11197 0.108157,0.31229 -0.395853,0.74299 -0.869456,0.74299 -0.110412,0 -0.634578,-0.42035 -1.16481,-0.9341 -1.073428,-1.04008 -1.436397,-1.89363 -0.893794,-2.10185 0.186212,-0.0714 0.398401,-0.0188 0.484283,0.12015 0.08407,0.13603 0.253824,0.18492 0.377228,0.10866 0.123405,-0.0763 0.35268,-0.0322 0.5095,0.098 0.219656,0.1823 0.233451,0.2989 0.06008,0.5078 -0.176407,0.21256 -0.128856,0.37357 0.219988,0.7449 0.244771,0.26054 0.51971,0.42757 0.610974,0.37116 0.09126,-0.0564 0.165936,-0.01 0.165936,0.10307 0,0.36153 -0.500503,0.22082 -0.962035,-0.27046 -0.291066,-0.30982 -0.410205,-0.61771 -0.341174,-0.88169 0.08533,-0.3263 0.0361,-0.38341 -0.251745,-0.29205 -0.225446,0.0716 -0.439508,-0.0153 -0.57864,-0.23473 -0.184811,-0.29148 -0.20105,-0.25586 -0.09958,0.21839 0.123542,0.57737 1.542773,2.03199 1.996728,2.04651 0.380686,0.0122 0.636716,-0.8314 0.309888,-1.02102 -0.147186,-0.0854 -0.404208,-0.41942 -0.571162,-0.74227 -0.625078,-1.20877 0.20239,-2.42838 1.541512,-2.27205 l 0.658295,0.0768 -0.698233,-0.80266 -0.698233,-0.80267 -0.880909,0.51361 c -2.085273,1.2158 -7.827554,3.84879 -11.367001,5.21208 -4.959102,1.91009 -9.50029,3.26314 -13.184783,3.92841 -1.16557,0.21045 -2.153531,0.41695 -2.195469,0.45889 -0.112566,0.11257 0.875238,0.77556 1.998642,1.34144 1.337508,0.67374 3.135524,1.11867 5.228432,1.29382 0.961088,0.0804 1.791118,0.15862 1.844511,0.17375 0.05339,0.0151 1.058167,-0.0609 2.23283,-0.16902 z"
           id="path1254" />
        <path
           style="fill:#000000;stroke-width:0.194159"
           d="m 44.011805,123.27592 c -0.907694,-0.19917 -2.220918,-0.62141 -2.918277,-0.9383 -2.281952,-1.03698 -3.54158,-2.5808 -2.105714,-2.5808 0.884154,0 5.20166,-0.9008 7.450979,-1.55456 8.662634,-2.51779 15.633902,-5.6555 26.308554,-11.84127 5.914513,-3.42735 14.513527,-7.961671 15.09875,-7.961671 0.303459,0 0.530143,0.272235 0.900756,1.08176 0.272386,0.594971 0.759333,1.473061 1.082109,1.951321 0.742289,1.09987 0.736033,1.34681 -0.04416,1.74322 -1.037503,0.52713 -2.970168,1.93741 -6.35871,4.63999 -8.723015,6.95716 -13.676215,10.07765 -20.09191,12.65778 -2.580165,1.03764 -5.929552,2.02823 -8.770241,2.59382 -3.04159,0.60559 -8.271921,0.70903 -10.55214,0.20871 z"
           id="path1252" />
        <path
           style="fill:#000000;stroke-width:0.194159"
           d="m 153.50303,124.33702 c 0.18514,-0.22308 0.11508,-0.2984 -0.37843,-0.40679 -0.69913,-0.15356 -0.82905,-0.0822 -0.65875,0.36154 0.15009,0.39113 0.72916,0.41639 1.03718,0.0452 z"
           id="path1250" />
        <path
           style="fill:#000000;stroke-width:0.194159"
           d="m 153.89828,124.76834 c 0.21773,-0.23371 0.39588,-0.50858 0.39588,-0.61082 0,-0.10225 -0.21426,0.0453 -0.47613,0.32785 -0.74861,0.80776 -1.65962,0.58885 -1.65962,-0.3988 0,-0.24561 -0.0874,-0.44657 -0.19416,-0.44657 -0.31027,0 -0.22431,0.80982 0.12717,1.19821 0.43822,0.48422 1.3225,0.45003 1.80686,-0.0699 z"
           id="path1248" />
        <path
           style="fill:#000000;stroke-width:0.194159"
           d="m 151.81672,127.23531 c 1.81524,-0.31655 4.5184,-1.21064 6.14693,-2.03315 l 1.04834,-0.52948 -1.48279,-0.12534 c -0.81553,-0.0689 -1.83336,-0.1814 -2.26184,-0.24992 -0.57707,-0.0923 -0.77904,-0.0585 -0.77904,0.13043 0,0.4937 -0.82772,1.15374 -1.44684,1.15374 -0.87714,0 -1.44469,-0.48074 -1.58211,-1.34013 l -0.11777,-0.73649 -1.85117,-0.52289 c -3.65396,-1.03213 -8.6454,-3.23317 -12.28227,-5.416 -3.5018,-2.10177 -6.96512,-4.59162 -12.23202,-8.79384 -1.762,-1.40582 -3.81523,-2.96954 -4.56274,-3.47493 -0.74751,-0.50539 -1.49755,-1.04144 -1.66675,-1.19122 -0.27107,-0.23996 -0.48338,-0.10164 -1.78632,1.16381 l -1.47869,1.43613 1.12282,0.88215 c 0.61756,0.48518 2.73198,2.60595 4.69872,4.71282 4.08613,4.37728 7.37265,7.34528 10.2892,9.29201 6.95817,4.64443 14.2619,6.68207 20.22434,5.6423 z"
           id="path1246" />
        <path
           style="fill:#000000;stroke-width:0.194159"
           d="m 146.52779,127.98443 c -5.10866,-0.64578 -10.25026,-2.61163 -14.89057,-5.6933 -3.30577,-2.19538 -5.58845,-4.18852 -9.401,-8.20856 -4.11609,-4.34009 -5.87038,-6.06366 -6.82242,-6.70294 -0.40045,-0.2689 -0.72809,-0.59786 -0.72809,-0.73102 0,-0.13316 0.47586,-0.60139 1.05746,-1.04051 0.5816,-0.43911 1.33889,-1.14858 1.68285,-1.5766 0.34396,-0.42801 0.7402,-0.7782 0.88053,-0.7782 0.14033,0 0.6281,0.26979 1.08392,0.59953 2.33954,1.69243 4.8689,3.61328 7.51972,5.71064 10.30575,8.15403 17.76207,12.03562 26.66507,13.88121 1.57776,0.32707 5.15665,0.7778 6.17592,0.7778 1.34626,0 -1.66106,1.8158 -4.48623,2.70876 -2.72312,0.8607 -6.58104,1.32574 -8.73716,1.05319 z"
           id="path1244" />
        <path
           style="fill:#000000;stroke-width:0.194159"
           d="m 55.572253,124.40372 c 0.199998,-0.3236 -0.03804,-0.43432 -0.619831,-0.2883 -0.416928,0.10464 -0.471696,0.17243 -0.251743,0.31159 0.376401,0.23812 0.715612,0.22906 0.871574,-0.0233 z"
           id="path1242" />
        <path
           style="fill:#000000;stroke-width:0.194159"
           d="m 55.812306,124.89103 c 0.237336,-0.16624 0.425983,-0.49388 0.419213,-0.7281 -0.01198,-0.41446 -0.01658,-0.41528 -0.172439,-0.0308 -0.371888,0.91747 -1.288352,1.06325 -1.916117,0.30478 -0.196671,-0.23761 -0.224223,-0.24243 -0.116134,-0.0203 0.41517,0.85325 1.016477,1.01301 1.785477,0.47439 z"
           id="path1240" />
        <path
           style="fill:#000000;stroke-width:0.194159"
           d="m 65.175144,127.03461 c 3.746175,-0.82967 7.741093,-2.48149 11.22206,-4.6401 3.643471,-2.25939 6.739918,-4.99129 11.717556,-10.33802 1.904796,-2.04604 3.974025,-4.10402 4.598287,-4.57328 l 1.135025,-0.85322 -0.76334,-0.57193 c -0.419838,-0.31456 -1.097255,-0.93321 -1.505374,-1.37477 l -0.742031,-0.80284 -1.710128,1.1712 c -0.940571,0.64416 -3.15417,2.31965 -4.919109,3.7233 -7.186835,5.71566 -11.029234,8.32863 -15.712114,10.68481 -3.922034,1.97336 -8.15164,3.55653 -11.075202,4.14552 -0.530602,0.1069 -0.698615,0.25433 -0.818922,0.71861 -0.159923,0.61716 -1.013252,1.2577 -1.675517,1.2577 -0.211125,0 -0.643199,-0.26525 -0.960165,-0.58946 l -0.576303,-0.58945 -1.611507,0.13439 -1.611505,0.1344 0.951275,0.48497 c 1.858949,0.94771 4.359088,1.74271 7.067287,2.24727 0.992347,0.18488 5.582908,-0.0575 6.989727,-0.3691 z"
           id="path1238" />
        <path
           style="fill:#000000;stroke-width:0.194159"
           d="m 57.60294,127.8226 c -0.907694,-0.14969 -2.393011,-0.50256 -3.300704,-0.78416 -2.018973,-0.62637 -5.242295,-2.17759 -5.242295,-2.52286 0,-0.17668 0.481829,-0.29133 1.601812,-0.38114 7.154313,-0.57375 14.84549,-3.2318 21.794356,-7.53208 2.776958,-1.71851 6.486033,-4.37549 9.869768,-7.07015 5.078523,-4.04433 8.151143,-6.27891 8.633679,-6.27891 0.11015,0 0.46697,0.33673 0.792932,0.74829 0.325962,0.41156 1.075963,1.12116 1.666667,1.57688 0.590704,0.45573 1.074009,0.93422 1.074009,1.06331 0,0.12909 -0.37133,0.50533 -0.825177,0.83608 -1.121237,0.81712 -2.544815,2.21555 -6.622727,6.50573 -3.735581,3.93002 -6.082712,6.00397 -9.184834,8.1158 -6.517796,4.4371 -14.456227,6.6799 -20.257486,5.72321 z"
           id="path1236" />
        <path
           style="fill:#000000;stroke-width:0.194159"
           d="m 141.18842,130.81634 c 1.70226,-0.243 3.16209,-0.61162 4.65982,-1.17667 l 1.16495,-0.43949 -1.74743,-0.25344 c -3.98647,-0.57816 -8.03841,-1.95724 -11.64731,-3.96416 -4.27574,-2.37774 -7.47776,-4.98832 -12.06359,-9.83532 -3.97284,-4.19911 -6.057,-6.24553 -7.08925,-6.96088 -0.71766,-0.49734 -0.83077,-0.521 -1.39681,-0.29223 -0.33876,0.13691 -1.14015,0.39036 -1.78088,0.56322 -0.64072,0.17285 -1.18267,0.32086 -1.20434,0.3289 -0.0217,0.008 0.85432,0.92885 1.94661,2.04626 1.14454,1.17084 2.90456,3.30674 4.15398,5.04111 4.23227,5.87497 5.0251,6.89874 6.70409,8.65688 4.11093,4.30473 9.02485,6.38047 15.29069,6.45912 0.9077,0.0114 2.26196,-0.0666 3.00947,-0.1733 z"
           id="path1234" />
        <path
           style="fill:#000000;stroke-width:0.194159"
           d="m 135.75197,131.38926 c -5.28535,-0.54313 -9.33116,-2.45861 -12.95109,-6.13167 -2.06692,-2.09725 -2.17706,-2.23678 -5.94994,-7.53761 -2.40968,-3.38556 -3.53145,-4.76452 -5.4174,-6.65947 -1.30814,-1.31439 -2.37845,-2.45296 -2.37845,-2.53016 0,-0.0772 0.55675,-0.24597 1.23721,-0.37506 0.68047,-0.12908 1.6488,-0.41112 2.15185,-0.62675 0.50305,-0.21564 1.05426,-0.39206 1.22492,-0.39206 0.6869,0 3.37346,2.40607 6.9976,6.26702 2.10324,2.24068 4.82884,4.94284 6.0569,6.00482 3.63842,3.14636 7.67571,5.63524 11.74662,7.24147 1.7665,0.697 5.37258,1.60383 7.0371,1.76965 0.72146,0.0719 1.4428,0.15504 1.60298,0.18483 0.16018,0.0298 0.48783,0.0608 0.7281,0.069 0.87738,0.0298 0.41669,0.56949 -0.98394,1.15258 -1.98214,0.82516 -3.98605,1.33372 -6.1923,1.57148 -2.09002,0.22524 -2.64859,0.22432 -4.91016,-0.008 z"
           id="path1232" />
        <path
           style="fill:#000000;stroke-width:0.194159"
           d="m 73.723236,130.81616 c 4.729196,-0.58031 8.249028,-2.17602 11.46678,-5.19844 1.969569,-1.85 3.752864,-4.02545 6.475566,-7.89957 2.584826,-3.67794 4.253911,-5.7453 6.012035,-7.44665 0.811451,-0.78525 1.475364,-1.4547 1.475364,-1.48767 0,-0.033 -0.371329,-0.12264 -0.825176,-0.19926 -0.453847,-0.0766 -1.262034,-0.33244 -1.795971,-0.56847 l -0.970796,-0.42916 -1.103066,0.84372 c -1.346708,1.03008 -3.003633,2.66089 -7.027333,6.9166 -3.447329,3.64609 -6.032385,5.91196 -9.052678,7.93489 -2.317838,1.55245 -5.883018,3.34212 -8.426203,4.22985 -1.639538,0.57231 -5.639797,1.47455 -7.106523,1.60285 -0.67321,0.0589 -0.668678,0.0637 0.485397,0.51188 3.203738,1.24426 6.692151,1.64351 10.392604,1.18943 z"
           id="path1230" />
        <path
           style="fill:#000000;stroke-width:0.194159"
           d="m 68.281689,131.37785 c -2.721648,-0.28213 -7.378045,-1.79124 -7.378045,-2.39119 0,-0.25751 0.98427,-0.48686 2.105251,-0.49054 2.235544,-0.007 7.436499,-1.56478 10.785774,-3.22978 5.166217,-2.56825 8.708842,-5.42657 14.806668,-11.94657 3.217575,-3.44034 6.232174,-6.18329 6.795654,-6.18329 0.131468,0 1.021394,0.26211 1.977612,0.58248 0.956218,0.32036 1.917119,0.58247 2.135338,0.58247 0.218217,0 0.451107,0.0879 0.517529,0.19542 0.0664,0.10748 -0.830576,1.13409 -1.993344,2.28137 -2.182501,2.15342 -3.08273,3.27274 -6.362336,7.91072 -2.560586,3.62116 -3.302631,4.54191 -5.296394,6.57192 -3.659093,3.72562 -7.508654,5.53038 -13.086459,6.13522 -2.10871,0.22866 -2.644342,0.22671 -5.007248,-0.0182 z"
           id="path1228" />
        <path
           style="fill:#000000;stroke-width:0.194159"
           d="m 131.77171,131.78516 c 0.54239,-0.009 0.39684,-0.0859 -0.72109,-0.37894 -3.00399,-0.78728 -5.40822,-2.06299 -7.90847,-4.19632 -1.79157,-1.52865 -3.6812,-3.77431 -6.47108,-7.69031 -3.43839,-4.82628 -4.44211,-6.09218 -6.31946,-7.97012 l -1.78191,-1.78249 -0.0548,2.40462 -0.0548,2.40461 2.36579,4.67751 c 1.30119,2.57264 2.62865,5.07069 2.94991,5.55124 3.04074,4.54832 6.36575,6.28626 13.53018,7.07205 0.37375,0.041 1.37853,0.0398 2.23283,-0.003 0.8543,-0.0425 1.85907,-0.0826 2.23283,-0.0891 z"
           id="path1226" />
        <path
           style="fill:#000000;stroke-width:0.194159"
           d="m 124.53515,132.09527 c -5.06637,-0.89072 -8.57105,-3.01093 -10.99723,-6.65294 -0.55365,-0.8311 -1.92827,-3.34317 -3.05471,-5.58237 -1.12645,-2.23921 -2.1707,-4.24635 -2.32058,-4.46032 -0.33605,-0.47978 -0.39819,-6.02681 -0.0698,-6.22977 0.2611,-0.16137 0.7776,0.19106 2.26152,1.54315 1.46396,1.33391 3.42568,3.7524 6.07583,7.49053 4.92147,6.94189 7.36968,9.42385 11.1671,11.32103 1.40702,0.70294 4.0465,1.56301 5.48499,1.78727 0.94191,0.14685 1.10108,0.56387 0.29124,0.76303 -1.1245,0.27655 -7.30034,0.29079 -8.83837,0.0204 z"
           id="path1224" />
        <path
           style="fill:#000000;stroke-width:0.194159"
           d="m 84.882289,131.47987 c 4.675493,-0.85862 7.82051,-2.76031 10.127701,-6.12387 0.537512,-0.78362 2.041901,-3.5248 3.343089,-6.09152 l 2.365791,-4.66676 -0.0549,-2.39153 -0.0548,-2.39153 -1.677862,1.65966 c -1.803033,1.78346 -3.536691,3.96375 -6.817412,8.57374 -3.691739,5.18753 -6.13393,7.66268 -9.403365,9.53027 -1.42206,0.81231 -4.575487,1.98067 -5.548387,2.05571 -0.238994,0.0184 0.13338,0.0959 0.827498,0.17218 1.672151,0.18373 4.963751,0.0279 6.892647,-0.32635 z"
           id="path1222" />
        <path
           style="fill:#000000;stroke-width:0.194159"
           d="m 77.018847,132.24982 c -0.266969,-0.041 -0.754793,-0.11766 -1.084054,-0.17045 -0.62435,-0.1001 -0.862078,-0.67301 -0.279267,-0.67301 0.595983,0 3.396087,-0.78229 4.664025,-1.30303 4.024994,-1.65305 7.048312,-4.3634 10.935461,-9.80341 4.304982,-6.02478 5.218852,-7.19323 7.068421,-9.03756 1.160432,-1.15715 2.153767,-1.99013 2.373227,-1.99013 0.35327,0 0.38139,0.17716 0.4391,2.76677 l 0.0617,2.76676 -2.21393,4.46566 c -1.217663,2.45611 -2.5972,5.06145 -3.065638,5.78963 -3.254356,5.05886 -8.246114,7.36276 -15.79246,7.28889 -1.441631,-0.0141 -2.839576,-0.0592 -3.106545,-0.10012 z"
           id="path1220" />
        <path
           style="fill:#000000;stroke-width:0.194159"
           d="m 120.05407,131.88936 c -4.53947,-1.61523 -6.70114,-3.79144 -9.72656,-9.79202 -1.02592,-2.0348 -1.89645,-3.69963 -1.93452,-3.69963 -0.0381,0 -0.084,2.06837 -0.10208,4.59639 l -0.0329,4.59639 1.14936,1.09369 c 2.38641,2.27084 6.2471,3.60174 10.61768,3.66026 l 1.35912,0.0182 -1.33013,-0.47328 z"
           id="path1218" />
        <path
           style="fill:#000000;stroke-width:0.194159"
           d="m 116.82146,132.63198 c -3.26541,-0.54233 -5.94853,-1.76897 -7.83457,-3.58168 l -1.35147,-1.29895 0.12736,-1.79426 c 0.07,-0.98685 0.12736,-3.35353 0.12736,-5.2593 0,-2.92376 0.0447,-3.46504 0.28625,-3.46504 0.17728,0 1.02243,1.45971 2.22018,3.83464 1.06366,2.10906 2.22358,4.23908 2.5776,4.73338 2.295,3.20446 5.38439,5.30548 8.84688,6.01656 0.94679,0.19443 1.2135,0.32601 1.2135,0.59868 0,0.32192 -0.22576,0.34738 -2.86385,0.32303 -1.57511,-0.0145 -3.08227,-0.0627 -3.34924,-0.10706 z"
           id="path1216" />
        <path
           style="fill:#000000;stroke-width:0.194159"
           d="m 93.734353,131.77591 c 2.381868,-0.58934 4.615219,-1.72206 6.004717,-3.04552 l 1.16553,-1.11013 -0.13091,-4.54624 -0.13091,-4.54624 -1.607284,3.23423 c -0.884005,1.77883 -1.939756,3.73726 -2.346114,4.35208 -0.917924,1.38882 -2.938848,3.40605 -4.230415,4.22269 -0.881682,0.55747 -3.291859,1.6384 -4.275973,1.9177 -1.133716,0.32177 4.161747,-0.13474 5.551359,-0.47857 z"
           id="path1214" />
        <path
           style="fill:#000000;stroke-width:0.194159"
           d="m 87.345426,132.80443 c -1.003097,-0.0476 -1.21481,-0.11478 -1.164954,-0.36987 0.04127,-0.21113 0.575018,-0.44774 1.653696,-0.73306 2.960838,-0.78317 5.35259,-2.25754 7.250567,-4.46956 1.231534,-1.4353 1.887306,-2.53494 3.849901,-6.45579 1.113044,-2.22362 1.881754,-3.5434 2.063884,-3.5434 0.25055,0 0.29021,0.73729 0.29021,5.39455 v 5.39455 l -1.01933,0.99369 c -2.830451,2.75924 -7.258866,4.05751 -12.923974,3.78889 z"
           id="path1212" />
        <path
           style="fill:#000000;stroke-width:0.194159"
           d="m 106.41071,102.37747 c 2.94054,-0.76591 5.24866,-3.283797 5.7811,-6.306479 0.86721,-4.923207 -3.91132,-9.687862 -8.8036,-8.778047 -2.60847,0.485094 -4.739703,2.119929 -5.868332,4.501492 -0.539591,1.138615 -0.599726,1.450868 -0.599726,3.114103 0,1.691456 0.05339,1.957044 0.628087,3.124421 0.812177,1.649764 1.891263,2.86179 3.165211,3.55516 1.95665,1.06495 3.70775,1.30756 5.69726,0.78935 z"
           id="path1210" />
        <path
           style="fill:#000000;stroke-width:0.194159"
           d="m 105.78705,148.58117 0.71222,-0.12606 0.10735,-1.58319 c 0.059,-0.87075 0.15384,-7.91762 0.21067,-15.65971 0.0568,-7.7421 0.15919,-17.09086 0.22746,-20.77503 l 0.12413,-6.69849 h -2.5817 -2.5817 l 0.12764,11.45539 c 0.0702,6.30046 0.18465,16.36002 0.25433,22.35456 l 0.12668,10.89918 0.98912,0.18856 c 0.54401,0.10371 1.12016,0.16208 1.28034,0.12971 0.16019,-0.0324 0.61174,-0.11559 1.00346,-0.18492 z"
           id="path1208" />
        <path
           style="fill:#000000;stroke-width:0.194159"
           d="m 102.98548,149.08273 c -0.40163,-0.0779 -0.79008,-0.20145 -0.86321,-0.27459 -0.1033,-0.10329 -0.55695,-31.65258 -0.62657,-43.57435 l -0.0128,-2.19393 1.21349,0.10583 1.2135,0.10582 -1.06788,-0.24869 c -1.60678,-0.37419 -2.889841,-1.08747 -4.089769,-2.27359 -1.326211,-1.31095 -2.046405,-2.745856 -2.34283,-4.667823 -0.554394,-3.594601 1.289241,-7.01978 4.616549,-8.576817 4.13498,-1.934986 8.95493,-0.236868 10.97507,3.866627 0.61881,1.256973 0.64602,1.406632 0.64602,3.553239 0,2.146607 -0.0272,2.296265 -0.64602,3.553239 -1.13817,2.311945 -3.39742,4.078095 -5.87935,4.596115 l -0.85268,0.17796 1.16023,-0.0378 1.16024,-0.0378 -0.0558,7.28096 c -0.0307,4.00453 -0.13602,13.30961 -0.23411,20.67795 -0.0981,7.36833 -0.18007,14.37266 -0.1822,15.56517 l -0.004,2.1682 -0.98035,0.21025 c -1.08145,0.23193 -2.03779,0.23922 -3.14767,0.024 z"
           id="path1206" />
        <path
           style="fill:#000000;stroke-width:0.194159"
           d="m 96.823072,140.07022 c 0,-0.0403 -0.1529,-0.19322 -0.339778,-0.33978 -0.307948,-0.24151 -0.314815,-0.23464 -0.07331,0.0733 0.253644,0.32342 0.413085,0.42627 0.413085,0.26647 z"
           id="path1204" />
        <path
           style="fill:#000000;stroke-width:0.194159"
           d="m 98.376345,140.91582 c 0,-0.67918 -3.05593,-3.02338 -3.440277,-2.63903 -0.06562,0.0656 -0.01738,0.1193 0.107212,0.1193 0.124586,0 0.22652,0.19222 0.22652,0.42715 0,0.33223 0.05178,0.37538 0.232991,0.19416 0.128145,-0.12814 0.340353,-0.23299 0.471573,-0.23299 0.361253,0 1.625345,1.26362 1.625345,1.62474 0,0.53115 -0.935991,0.38153 -1.568208,-0.25069 -0.58012,-0.58012 -0.762955,-0.55056 -0.322275,0.0521 0.439726,0.60136 2.667119,1.19034 2.667119,0.70525 z"
           id="path1202" />
        <path
           style="fill:#000000;stroke-width:0.194159"
           d="m 96.572561,141.38388 c -0.989,-0.30398 -1.688926,-1.11623 -1.690353,-1.96162 -7.77e-4,-0.51045 -0.510231,-0.82112 -1.845237,-1.12546 -0.607014,-0.13837 -0.970796,-0.32494 -0.970796,-0.49786 0,-0.21558 0.321075,-0.27444 1.456193,-0.26692 1.736901,0.0115 3.1857,0.59273 4.302709,1.72618 1.858522,1.88587 1.261847,2.8985 -1.252516,2.12568 z"
           id="path1200" />
        <path
           style="fill:#000000;stroke-width:0.194159"
           d="m 95.875407,151.0504 c 1.215335,-0.41889 2.716074,-0.87481 3.334975,-1.01315 0.618904,-0.13834 1.159748,-0.3073 1.201868,-0.37546 0.0421,-0.0682 -0.857418,-0.28247 -1.99899,-0.47623 -4.336117,-0.73599 -8.955777,-2.06141 -11.641356,-3.33999 -2.982101,-1.41976 -4.010123,-3.10245 -2.90262,-4.75108 1.003736,-1.49416 2.834414,-1.47057 6.773282,0.0873 3.282222,1.29815 5.035473,1.74583 6.903161,1.76266 1.460532,0.0132 1.638461,-0.0276 2.091009,-0.47923 0.463604,-0.46264 0.479114,-0.53845 0.247188,-1.20835 -0.339178,-0.97969 -1.706724,-2.81458 -2.743821,-3.68148 -1.148905,-0.96037 -2.799931,-1.7772 -4.68561,-2.31816 -2.099017,-0.60216 -7.199804,-0.65309 -9.319635,-0.0931 -3.084803,0.81498 -5.387697,2.40658 -6.361844,4.39685 -0.577349,1.17959 -0.6884,3.43587 -0.244294,4.96354 1.097385,3.77487 4.85738,6.50847 11.449927,8.32436 l 2.319719,0.63896 1.683672,-0.83793 c 0.926019,-0.46086 2.678034,-1.18066 3.893369,-1.59956 z"
           id="path1198" />
        <path
           style="fill:#000000;stroke-width:0.194159"
           d="m 87.115119,153.17615 c -4.308872,-1.29563 -6.952054,-2.68928 -8.907081,-4.69638 -3.163538,-3.2478 -3.39843,-8.2321 -0.523435,-11.10709 1.12363,-1.12364 3.507781,-2.32317 5.547334,-2.79103 2.20781,-0.50646 7.147435,-0.45306 9.222556,0.0997 3.424953,0.91232 6.315115,3.01251 7.546677,5.48392 0.99829,2.00331 0.57368,2.98762 -1.446294,3.35272 -1.600039,0.2892 -3.625942,-0.20948 -9.692326,-2.3858 -2.21745,-0.79551 -3.259699,-0.79495 -4.167663,0.002 -2.820925,2.47681 3.207922,5.65911 14.506634,7.65726 2.126789,0.37612 3.058009,0.6187 3.058009,0.7966 0,0.14068 -0.24028,0.30825 -0.53394,0.37236 -3.216644,0.7023 -7.657291,2.20916 -9.750142,3.30855 -0.690623,0.36279 -1.520653,0.65446 -1.844511,0.64817 -0.323855,-0.006 -1.680975,-0.33985 -3.015818,-0.74122 z"
           id="path1196" />
        <path
           style="fill:#000000;stroke-width:0.194159"
           d="m 106.00488,164.02469 c 0.0559,-0.21372 0.0224,-0.33962 -0.0744,-0.27978 -0.0968,0.0599 -0.17605,0.23471 -0.17605,0.38859 0,0.40186 0.13193,0.34455 0.25049,-0.10881 z"
           id="path1194" />
        <path
           style="fill:#000000;stroke-width:0.194159"
           d="m 103.21444,163.71682 c -0.42592,-0.45337 -0.43117,-0.49279 -0.10825,-0.81227 0.32212,-0.31869 0.37839,-0.29416 1.10548,0.48188 0.71501,0.76314 0.76608,0.7863 0.76608,0.34734 0,-0.5448 0.68651,-1.26208 1.20793,-1.26208 0.32985,0 0.35374,-0.17055 0.30316,-2.1643 l -0.0549,-2.1643 -0.93168,-0.27131 c -0.78278,-0.22795 -1.07758,-0.23014 -1.84451,-0.0137 l -0.91284,0.25766 -0.053,3.55032 -0.053,3.55033 0.51156,-0.51155 0.51155,-0.51156 -0.44765,-0.4765 z"
           id="path1192" />
        <path
           style="fill:#000000;stroke-width:0.194159"
           d="m 105.64758,165.62677 c 0.0816,0.18688 0.27006,0.33978 0.41882,0.33978 0.36686,0 0.34009,-0.19557 -0.0693,-0.50635 -0.31464,-0.23885 -0.30746,-0.25839 0.0971,-0.26411 0.37956,-0.005 0.43304,-0.10167 0.40777,-0.73427 -0.0242,-0.60451 -0.043,-0.63551 -0.11109,-0.18262 -0.12545,0.83449 -0.73354,0.62152 -0.73354,-0.2569 0,-0.55414 0.0792,-0.68815 0.43686,-0.73894 0.48423,-0.0688 0.60619,-0.42335 0.14562,-0.42335 -0.45413,0 -1.06788,0.72534 -1.06788,1.26203 0,0.66898 -0.16802,0.61363 -1.0066,-0.3316 -0.39865,-0.44935 -0.78702,-0.75481 -0.86303,-0.67879 -0.076,0.076 0.0514,0.34008 0.28323,0.58681 0.53769,0.57234 0.53049,0.79287 -0.038,1.16538 -0.46276,0.30322 -0.8203,1.10271 -0.49313,1.10271 0.0968,0 0.17598,-0.17167 0.17598,-0.38149 0,-0.39038 0.52242,-0.78346 1.04124,-0.78346 0.44611,0 0.89782,0.55296 0.92332,1.13028 0.0229,0.51759 0.0237,0.51729 0.16366,-0.0624 0.11544,-0.47793 0.16732,-0.52149 0.28904,-0.2427 z"
           id="path1190" />
        <path
           style="fill:#000000;stroke-width:0.194159"
           d="m 104.74795,165.82259 c -0.0742,-0.64267 -0.69524,-0.83514 -1.06465,-0.32994 -0.32527,0.44484 -0.01,0.86222 0.65157,0.86222 0.4028,0 0.46523,-0.0804 0.41308,-0.53228 z"
           id="path1188" />
        <path
           style="fill:#000000;stroke-width:0.194159"
           d="m 103.19772,166.59841 -0.90632,-0.30182 -0.12581,-1.76683 c -0.0692,-0.97176 -0.0982,-2.90021 -0.0645,-4.28546 l 0.0613,-2.51863 1.19409,-0.35628 c 1.1182,-0.33363 1.26218,-0.33649 2.26511,-0.0449 0.58905,0.17124 1.14548,0.41649 1.2365,0.545 0.091,0.12851 0.12018,2.06616 0.0648,4.30589 l -0.10069,4.07224 -0.87371,0.33432 c -1.06129,0.40609 -1.57171,0.40916 -2.75083,0.0165 z"
           id="path1186" />
        <path
           style="fill:#000000;stroke-width:0.194159"
           d="m 121.47922,151.89249 c 0.34595,-0.41685 0.0898,-0.91569 -0.43195,-0.84127 -0.49762,0.071 -0.7062,0.70912 -0.3132,0.95818 0.364,0.23067 0.47056,0.21395 0.74515,-0.11691 z"
           id="path1184" />
        <path
           style="fill:#000000;stroke-width:0.194159"
           d="m 120.48736,152.20158 c -0.39112,-0.31671 -0.42729,-0.44523 -0.25953,-0.92226 0.16349,-0.46488 0.303,-0.55426 0.86513,-0.55426 0.56213,0 0.70163,0.0894 0.86512,0.55426 0.16776,0.47703 0.1316,0.60555 -0.25953,0.92226 -0.24995,0.2024 -0.52247,0.368 -0.60559,0.368 -0.0831,0 -0.35565,-0.1656 -0.6056,-0.368 z"
           id="path1182" />
        <path
           style="fill:#000000;stroke-width:0.194159"
           d="m 121.95218,152.71688 c 0.0792,0.0792 0.12232,0.0566 0.0959,-0.0502 -0.0264,-0.10678 0.0179,-0.42812 0.0984,-0.71408 0.20008,-0.71025 0.002,-1.22342 -0.57189,-1.48512 -0.95881,-0.43686 -1.83044,0.37248 -1.5603,1.4488 0.13726,0.54691 1.2319,1.12308 1.5819,0.83264 0.11661,-0.0968 0.27679,-0.11117 0.35596,-0.032 z"
           id="path1180" />
        <path
           style="fill:#000000;stroke-width:0.194159"
           d="m 117.0214,152.58039 c -0.2178,-0.40697 -0.58826,-0.70574 -0.58826,-0.47442 0,0.14975 0.59054,0.85192 0.71648,0.85192 0.0406,0 -0.0171,-0.16987 -0.12822,-0.3775 z"
           id="path1178" />
        <path
           style="fill:#000000;stroke-width:0.194159"
           d="m 119.04565,153.36019 c 0.0612,-0.0991 -0.0712,-0.23813 -0.29442,-0.30897 -0.46093,-0.14629 -0.67046,-0.0236 -0.48156,0.28207 0.15753,0.25489 0.62506,0.2711 0.77598,0.0269 z"
           id="path1176" />
        <path
           style="fill:#000000;stroke-width:0.194159"
           d="m 112.18452,140.89023 c 0.41113,-0.12317 0.90181,-0.39621 1.09041,-0.60674 0.32068,-0.35799 0.29886,-0.3561 -0.33665,0.0291 -1.40258,0.85006 -1.90616,0.15721 -0.6728,-0.92569 0.84662,-0.74335 1.20531,-0.76214 1.31037,-0.0686 0.0764,0.50454 0.0825,0.49973 0.10997,-0.0874 0.017,-0.36318 0.17028,-0.70361 0.36887,-0.81928 0.6394,-0.37241 -0.15008,-0.21532 -0.938,0.18665 -0.8785,0.44817 -2.31416,1.84292 -2.31416,2.2482 0,0.32658 0.39641,0.33916 1.38199,0.0439 z"
           id="path1174" />
        <path
           style="fill:#000000;stroke-width:0.194159"
           d="m 110.46275,141.56808 c -0.71937,-0.29027 0.19108,-2.00735 1.56592,-2.95327 1.56427,-1.07624 4.79135,-1.59393 4.94316,-0.79297 0.0422,0.22287 -0.23781,0.36043 -1.0936,0.53719 -1.25114,0.25842 -1.45661,0.41867 -1.66554,1.29897 -0.20245,0.85301 -0.83317,1.42543 -1.92927,1.75094 -0.99409,0.29521 -1.39632,0.33037 -1.82067,0.15914 z"
           id="path1172" />
        <path
           style="fill:#000000;stroke-width:0.194159"
           d="m 127.27131,147.6555 c 0.10794,-0.56047 -0.31655,-0.90839 -0.95299,-0.78111 -0.48268,0.0965 -0.56555,0.0527 -0.56555,-0.29948 0,-0.22692 0.0874,-0.41258 0.19416,-0.41258 0.10679,0 0.19126,-0.10922 0.1877,-0.2427 -0.004,-0.13349 -0.17961,-0.0348 -0.39124,0.21928 -0.49431,0.59347 -0.20703,0.99421 0.71271,0.99421 0.7282,0 0.89697,0.41344 0.31601,0.77414 -0.3111,0.19315 -0.30719,0.20607 0.0463,0.15304 0.21235,-0.0319 0.41615,-0.21402 0.45289,-0.4048 z"
           id="path1170" />
        <path
           style="fill:#000000;stroke-width:0.194159"
           d="m 126.21487,148.21029 c -0.0595,-0.15506 -0.0516,-0.37349 0.0175,-0.48539 0.0692,-0.11191 0.003,-0.20346 -0.14686,-0.20346 -0.69315,0 -1.17762,-1.21325 -0.68227,-1.7086 0.38196,-0.38196 1.12612,-0.29001 1.12612,0.13915 0,0.20467 -0.10921,0.4162 -0.2427,0.47007 -0.13348,0.0539 0.0238,0.10482 0.34949,0.11325 0.73885,0.0191 1.05816,0.32636 1.05816,1.01813 0,0.78559 -1.22191,1.32808 -1.47949,0.65685 z"
           id="path1168" />
        <path
           style="fill:#000000;stroke-width:0.194159"
           d="m 124.98965,148.96136 c 0.18046,-0.21745 0.19758,-0.39888 0.0584,-0.61946 -0.43569,-0.69071 -1.1674,-0.37276 -0.96825,0.42073 0.14347,0.57164 0.53021,0.65611 0.90981,0.19873 z"
           id="path1166" />
        <path
           style="fill:#000000;stroke-width:0.194159"
           d="m 124.04854,149.35494 c -0.46945,-0.32882 -0.56923,-1.03564 -0.19852,-1.40635 0.36918,-0.36919 1.27981,-0.28308 1.50761,0.14256 0.28553,0.53353 0.25312,0.73727 -0.18733,1.17772 -0.46744,0.46744 -0.56643,0.47504 -1.12176,0.0861 z"
           id="path1164" />
        <path
           style="fill:#000000;stroke-width:0.194159"
           d="m 125.28916,149.36194 c 0.28987,-0.28986 0.46445,-0.65808 0.42804,-0.90277 -0.0879,-0.5907 -0.97967,-1.20544 -1.5062,-1.03833 -0.90713,0.28791 -1.01536,1.8849 -0.15131,2.23258 0.6367,0.2562 0.69582,0.24218 1.22947,-0.29148 z"
           id="path1162" />
        <path
           style="fill:#000000;stroke-width:0.194159"
           d="m 123.45671,149.59627 c -1.23936,-1.31925 0.46228,-3.16464 1.99317,-2.16156 0.60725,0.39788 0.77057,1.11764 0.41127,1.81244 -0.48063,0.92944 -1.69378,1.10558 -2.40444,0.34912 z"
           id="path1160" />
        <path
           style="fill:#000000;stroke-width:0.194159"
           d="m 123.79851,150.74047 c 0.1858,-0.22389 0.16241,-0.25854 -0.12399,-0.18365 -0.45868,0.11995 -1.51268,-0.95158 -1.35084,-1.37331 0.0708,-0.18462 0.0111,-0.30283 -0.15306,-0.30283 -0.1481,0 -0.40822,-0.0533 -0.57805,-0.11849 -0.58462,-0.22434 -0.0562,0.60822 0.91985,1.44933 0.51373,0.4427 0.96174,0.80491 0.99556,0.80491 0.0338,0 0.16456,-0.12418 0.29053,-0.27596 z"
           id="path1158" />
        <path
           style="fill:#000000;stroke-width:0.194159"
           d="m 122.39525,150.53727 c -0.29822,-0.37719 -0.66559,-0.68579 -0.81638,-0.68579 -0.26333,0 -0.64099,-1.26876 -0.43806,-1.47169 0.052,-0.052 0.45615,-0.0366 0.8982,0.0341 0.73197,0.11705 0.80008,0.17657 0.76273,0.66665 -0.052,0.68241 0.33865,1.1593 0.94964,1.1593 0.38167,0 0.46293,0.0859 0.41309,0.43685 -0.0464,0.32659 -0.20908,0.45069 -0.64453,0.49164 -0.46818,0.044 -0.68886,-0.0798 -1.12469,-0.63102 z"
           id="path1156" />
        <path
           style="fill:#000000;stroke-width:0.194159"
           d="m 94.035278,170.14856 c 0.763065,-0.53447 3.467186,-1.62874 5.70018,-2.30668 2.146392,-0.65164 2.210282,-0.68641 1.650352,-0.89814 -2.667112,-1.00854 -4.944928,-2.80684 -5.315514,-4.19649 -0.489249,-1.83464 0.405822,-3.2648 2.888526,-4.61533 2.517978,-1.36973 5.148448,-2.06556 12.232018,-3.2357 2.21704,-0.36624 4.09242,-0.78073 4.52524,-1.00016 0.45605,-0.2312 0.90223,-0.32531 1.16496,-0.24573 0.36491,0.11054 0.33555,0.0342 -0.2052,-0.5336 -0.69225,-0.72689 -0.80709,-1.26828 -0.30954,-1.45921 0.42726,-0.16396 1.09794,0.66061 0.96155,1.18218 -0.10251,0.39198 0.17185,0.89496 0.48818,0.89496 0.0937,0 0.17038,-0.22117 0.17038,-0.49149 0,-0.63769 0.40092,-0.77732 1.13779,-0.39627 0.3247,0.1679 0.70391,0.30121 0.8427,0.29624 0.13879,-0.005 -0.17107,-0.22934 -0.68858,-0.4986 -0.91304,-0.47506 -0.95253,-0.47911 -1.33313,-0.13658 -0.38072,0.34262 -0.39009,0.34159 -0.31946,-0.0353 0.10308,-0.5501 1.00077,-0.60432 1.83697,-0.11095 l 0.68136,0.40201 -0.30219,-0.43144 c -0.43469,-0.6206 -0.37281,-1.26284 0.17439,-1.81004 1.2033,-1.20331 3.22857,0.17789 2.43503,1.66064 -0.18242,0.34086 -0.11042,0.33551 1.12088,-0.0833 3.41299,-1.16083 6.17695,-2.91899 7.66256,-4.87416 1.15027,-1.51383 1.57328,-2.80367 1.59031,-4.84905 0.0128,-1.53777 -0.0507,-1.88028 -0.52917,-2.85464 -0.99357,-2.02328 -3.27629,-3.58898 -6.34894,-4.35468 -2.05221,-0.51141 -6.87551,-0.51192 -8.93131,-9.7e-4 -3.31723,0.82451 -6.23842,2.91468 -7.46402,5.34067 -0.66589,1.31806 -0.5602,1.87851 0.43266,2.29424 1.38759,0.58102 4.31874,0.0282 8.48266,-1.59996 3.70144,-1.4473 5.09029,-1.5729 6.28416,-0.56833 1.26859,1.06745 1.23664,2.61238 -0.0779,3.76656 -2.05139,1.80114 -7.51949,3.64351 -14.45313,4.86971 -9.08215,1.60616 -13.178622,2.66959 -16.814882,4.36508 -5.48478,2.55741 -7.737284,5.83747 -6.789634,9.88694 0.407118,1.7397 1.103581,2.99429 2.327235,4.19225 1.183819,1.15897 1.424807,1.3325 2.929247,2.10933 1.323151,0.68323 1.594782,0.72416 2.163262,0.32598 z"
           id="path1154" />
        <path
           style="fill:#000000;stroke-width:0.194159"
           d="m 91.985228,170.52144 c -1.449729,-0.67484 -3.351704,-2.06493 -4.075193,-2.97841 -0.331924,-0.41908 -0.886841,-1.36023 -1.233147,-2.09142 -0.596517,-1.25949 -0.629644,-1.44692 -0.629644,-3.56227 0,-2.08022 0.03858,-2.30897 0.564496,-3.34689 0.709717,-1.40067 2.678034,-3.31669 4.48364,-4.36451 3.672882,-2.13144 8.089762,-3.43873 17.24603,-5.1044 11.37012,-2.06841 16.82889,-4.27543 16.82889,-6.80404 0,-0.22956 -0.30879,-0.72616 -0.68619,-1.10357 -0.66891,-0.6689 -0.7166,-0.68371 -1.89306,-0.58779 -0.76192,0.0621 -1.99425,0.40294 -3.3426,0.92445 -5.84054,2.25897 -8.94053,2.62964 -10.33445,1.23572 -0.3896,-0.38961 -0.46069,-0.60522 -0.36208,-1.09826 0.40027,-2.00136 2.75452,-4.6623 5.16299,-5.83557 2.5156,-1.22547 4.09449,-1.5394 7.76636,-1.54419 3.54579,-0.005 5.13359,0.29342 7.52532,1.41259 1.48725,0.69593 3.17505,2.25296 3.73617,3.44669 1.4818,3.15239 0.63255,6.88367 -2.19665,9.65128 -2.82162,2.76019 -7.39909,4.51363 -15.66624,6.00108 -1.54842,0.27859 -4.53086,0.81159 -6.62765,1.18443 -5.44374,0.96797 -8.285813,1.94063 -10.422598,3.56697 -0.695427,0.52931 -1.394868,1.71571 -1.394868,2.36601 0,1.55798 2.221906,3.43746 5.524556,4.67314 0.59227,0.22159 1.07685,0.51811 1.07685,0.65892 0,0.1563 -0.62387,0.42435 -1.60181,0.68821 -2.436492,0.65741 -4.744793,1.50877 -6.365662,2.34781 -0.804731,0.41657 -1.591075,0.75654 -1.747432,0.7555 -0.156356,-9.7e-4 -0.75757,-0.22221 -1.336028,-0.49148 z"
           id="path1152" />
        <path
           style="fill:#000000;stroke-width:0.194159"
           d="m 105.43849,184.92001 0.64241,-0.26842 0.12799,-2.09169 c 0.0704,-1.15043 0.12798,-3.14909 0.12798,-4.44147 v -2.34977 l -0.89394,-0.32146 c -0.82793,-0.29772 -0.95695,-0.2981 -1.74743,-0.005 l -0.8535,0.31633 v 4.38855 4.38855 l 0.63102,0.31405 c 0.79247,0.3944 1.15875,0.40753 1.96547,0.0705 z"
           id="path1150" />
        <path
           style="fill:#000000;stroke-width:0.194159"
           d="m 103.3078,185.34631 -0.79624,-0.40051 -0.12602,-2.62761 c -0.0693,-1.44519 -0.12601,-3.57799 -0.12601,-4.73956 v -2.11195 l 0.88981,-0.38142 c 0.4894,-0.20978 1.08543,-0.38142 1.32453,-0.38142 0.73987,0 2.22519,0.59499 2.28838,0.91668 0.033,0.16804 0.0163,2.32403 -0.0371,4.7911 l -0.0971,4.48557 -0.86632,0.43686 c -1.04975,0.52936 -1.42227,0.53122 -2.45399,0.0123 z"
           id="path1148" />
        <path
           style="fill:#000000;stroke-width:0.194159"
           d="m 117.12068,155.66333 c 0.18501,-0.29935 0.0609,-0.35433 -0.53966,-0.23897 -0.29242,0.0562 -0.48385,0.17952 -0.4254,0.27409 0.14803,0.23951 0.81022,0.21541 0.96506,-0.0351 z"
           id="path1146" />
        <path
           style="fill:#000000;stroke-width:0.194159"
           d="m 116.99936,157.30702 c -0.34624,-0.4172 -0.39419,-0.85413 -0.0937,-0.85413 0.36004,0 0.94282,-0.71425 0.82254,-1.0081 -0.0683,-0.16679 -0.14803,-0.10966 -0.23242,0.16648 -0.17542,0.57394 -1.00297,0.76161 -1.47494,0.33448 -0.73917,-0.66894 -0.56942,-0.0786 0.22531,0.78362 0.77178,0.83728 1.31352,1.25273 0.75325,0.57765 z"
           id="path1144" />
        <path
           style="fill:#000000;stroke-width:0.194159"
           d="m 115.77212,157.58784 c 0.0893,-0.14445 0.0529,-0.17121 -0.1024,-0.0753 -0.31402,0.19408 -1.57245,-1.01243 -1.43354,-1.3744 0.0673,-0.17539 -0.0384,-0.26778 -0.30634,-0.26778 -0.23419,0 -0.40909,0.12451 -0.40909,0.29124 0,0.16018 0.09,0.29124 0.20009,0.29124 0.11005,0 0.46859,0.3058 0.79675,0.67955 0.61536,0.70085 1.01351,0.84538 1.25453,0.4554 z"
           id="path1142" />
        <path
           style="fill:#000000;stroke-width:0.194159"
           d="m 112.55365,159.45791 c 0.20518,-0.24723 0.19317,-0.27565 -0.0733,-0.17339 -0.17529,0.0673 -0.3187,0.20032 -0.3187,0.29569 0,0.24968 0.11239,0.21461 0.39201,-0.1223 z"
           id="path1140" />
        <path
           style="fill:#000000;stroke-width:0.194159"
           d="m 113.31629,159.66892 c 0.17479,-0.2106 0.17731,-0.37992 0.0103,-0.69202 -0.17504,-0.32707 -0.33586,-0.38799 -0.77162,-0.29228 -0.65858,0.14465 -0.99686,-0.23504 -0.52005,-0.5837 0.4501,-0.32911 0.40098,-0.5396 -0.0674,-0.28892 -0.81162,0.43436 -0.37548,1.16496 0.69544,1.16496 0.56139,0 0.66927,0.69595 0.12973,0.83695 -0.28666,0.0749 -0.29038,0.0923 -0.0238,0.11132 0.1738,0.0124 0.42014,-0.10295 0.54741,-0.25631 z"
           id="path1138" />
        <path
           style="fill:#000000;stroke-width:0.194159"
           d="m 113.791,157.89614 c -0.6276,-0.7659 -1.04688,-1.06714 -1.04688,-0.75214 0,0.25262 1.44019,1.80577 1.58909,1.71374 0.0897,-0.0555 -0.15427,-0.48817 -0.54221,-0.9616 z"
           id="path1136" />
        <path
           style="fill:#000000;stroke-width:0.194159"
           d="m 113.22569,158.19548 c -0.82629,-1.04313 -0.94696,-1.41745 -0.48157,-1.49384 0.5244,-0.0861 1.94159,1.44386 1.94159,2.09605 0,0.67559 -0.6652,0.40122 -1.46002,-0.60221 z"
           id="path1134" />
        <path
           style="fill:#000000;stroke-width:0.194159"
           d="m 100.40639,187.19413 2.24587,-1.10085 -1.4681,-0.7922 c -2.99738,-1.61741 -4.195942,-3.02172 -4.3263,-5.06897 -0.226283,-3.55371 3.33008,-5.76628 12.97387,-8.07161 1.76199,-0.4212 3.9026,-0.99319 4.7569,-1.2711 3.65824,-1.19003 5.98887,-2.95188 7.23193,-5.46704 0.70284,-1.42211 0.72859,-1.54661 0.72859,-3.52295 0,-1.96559 -0.0271,-2.09863 -0.6665,-3.27805 -0.66552,-1.2275 -2.59088,-3.20065 -3.30549,-3.38752 -0.27105,-0.0709 -0.38449,0.0421 -0.46964,0.46786 -0.068,0.34024 -0.30035,0.64702 -0.5898,0.77891 -0.44882,0.20449 -0.45976,0.24473 -0.18185,0.66887 0.30996,0.47306 0.21858,0.85668 -0.20408,0.85668 -0.13707,0 -0.69112,-0.52255 -1.23123,-1.16122 -0.72317,-0.85514 -1.01212,-1.08276 -1.09624,-0.86354 -0.17077,0.44501 0.41297,1.22508 0.8343,1.1149 0.50297,-0.13153 0.72177,0.53506 0.28133,0.85711 -0.503,0.3678 -1.02699,0.12355 -2.08648,-0.97258 -0.8465,-0.87578 -0.97498,-0.94704 -1.18636,-0.65796 -0.25569,0.34968 -0.68447,0.42128 -0.98058,0.16375 -0.10144,-0.0882 -1.01448,-0.0179 -2.02896,0.15623 l -1.84451,0.31666 1.55327,0.75595 c 0.8543,0.41577 1.60838,0.78613 1.67572,0.82302 0.0674,0.0369 0.17677,-0.14934 0.24315,-0.41384 0.14124,-0.56273 0.7929,-0.83443 1.197,-0.49906 0.37538,0.31153 0.35575,0.52697 -0.0579,0.63506 -0.18688,0.0488 -0.0589,0.0989 0.28441,0.11132 1.04324,0.0376 1.41698,1.42091 0.5061,1.87316 -0.30533,0.15159 -0.37367,0.28796 -0.24567,0.49025 0.35006,0.5533 0.19999,1.96502 -0.2995,2.81733 -1.16565,1.98903 -3.9107,3.28971 -11.45803,5.42912 -7.246493,2.05414 -10.084205,4.41968 -10.786428,8.99167 -0.478169,3.11322 0.581613,5.56176 3.311305,7.65048 0.817926,0.62587 4.187318,2.66799 4.406291,2.67057 0.02074,1.9e-4 1.04835,-0.49494 2.283572,-1.10041 z"
           id="path1132" />
        <path
           style="fill:#000000;stroke-width:0.194159"
           d="m 96.29875,187.92168 c -4.617396,-2.45124 -6.465404,-4.88631 -6.465404,-8.51931 0,-2.89032 0.684591,-4.7852 2.374299,-6.57182 1.858151,-1.96472 3.975943,-2.97938 9.645155,-4.62114 5.97712,-1.73091 7.74235,-2.47456 9.37481,-3.94939 0.96797,-0.87451 1.32235,-1.56043 1.32235,-2.55953 0,-0.65336 -0.1357,-0.93783 -0.7816,-1.63856 -0.77589,-0.84173 -2.54549,-1.88431 -4.31508,-2.54226 -0.98325,-0.36558 -1.20274,-0.80162 -0.4854,-0.96429 0.24028,-0.0545 1.79112,-0.32097 3.44633,-0.5922 1.6552,-0.27122 4.16898,-0.71178 5.58618,-0.97901 l 2.57671,-0.48588 0.82107,0.56515 c 1.24773,0.85882 2.63698,2.445 3.17968,3.63041 0.67209,1.46804 0.81072,3.49048 0.36416,5.31271 -0.63222,2.57983 -2.63445,4.92039 -5.35784,6.26319 -1.92244,0.94789 -2.66504,1.18379 -7.55828,2.40108 -6.37772,1.58657 -9.25352,2.72169 -11.170624,4.40918 -1.115825,0.98219 -1.488449,1.70707 -1.47938,2.87786 0.01458,1.88174 1.422901,3.50714 4.363774,5.0364 0.92412,0.48055 1.68125,0.97713 1.68252,1.10352 0.002,0.17703 -4.963568,2.79278 -5.269409,2.77594 -0.03722,-0.002 -0.871524,-0.43047 -1.854021,-0.95205 z"
           id="path1130" />
        <path
           style="fill:#000000;stroke-width:0.194159"
           d="m 106.09936,196.10175 0.0537,-2.71401 -0.78868,-0.41109 -0.78868,-0.41108 -0.76979,0.39272 -0.76979,0.39272 v 2.68801 2.68801 l 0.7281,0.49327 0.7281,0.49327 0.77663,-0.4489 0.77664,-0.4489 z"
           id="path1128" />
        <path
           style="fill:#000000;stroke-width:0.194159"
           d="m 103.56525,199.75824 c -0.50526,-0.32043 -0.95477,-0.77133 -1.01618,-1.01934 -0.0606,-0.2446 -0.085,-1.62425 -0.0542,-3.06588 l 0.0559,-2.62114 1.01064,-0.54162 1.01065,-0.54161 0.97948,0.49634 0.97949,0.49635 v 3.08303 3.08304 l -0.93926,0.60271 c -0.51659,0.3315 -0.98003,0.60272 -1.02986,0.60272 -0.0498,0 -0.49833,-0.25857 -0.99666,-0.5746 z"
           id="path1126" />
        <path
           style="fill:#000000;stroke-width:0.194159"
           d="m 101.38699,201.59171 c 0.85365,-0.50265 1.57424,-0.93358 1.60131,-0.95763 0.0271,-0.024 -0.47899,-0.45391 -1.12459,-0.95526 -1.67672,-1.30209 -2.322411,-2.39524 -2.322411,-3.93183 0,-1.24661 0.308302,-1.8469 1.456191,-2.83533 0.66095,-0.56914 3.17036,-1.80914 6.21309,-3.07016 5.60206,-2.32169 7.8702,-3.64416 9.68,-5.64406 1.39238,-1.53863 1.87247,-2.76938 1.87247,-4.80027 0,-2.67799 -0.93642,-5.07091 -2.56151,-6.54566 l -0.717,-0.65067 -1.32167,0.3819 c -0.72692,0.21004 -2.23908,0.59841 -3.36034,0.86303 -1.12127,0.26462 -2.46022,0.59222 -2.97545,0.72799 l -0.93677,0.24686 1.41218,0.67555 c 1.85292,0.88638 3.54019,2.50049 3.86161,3.69417 0.45613,1.69391 -0.11862,3.40992 -1.59921,4.77468 -1.12381,1.03589 -2.66595,1.88088 -6.80455,3.72844 -4.379443,1.95508 -5.820678,2.82145 -7.268833,4.36953 -1.376594,1.47159 -1.804184,2.52046 -1.804184,4.42566 0,1.73925 0.548066,3.17133 1.707009,4.46036 1.118811,1.24438 2.735729,2.32858 3.148148,2.11093 0.160832,-0.0849 0.99086,-0.56558 1.84451,-1.06823 z"
           id="path1124" />
        <path
           style="fill:#000000;stroke-width:0.194159"
           d="m 98.09849,202.75574 c -2.577765,-1.78305 -3.772756,-3.63295 -3.942018,-6.10243 -0.232315,-3.3894 1.286935,-5.70585 5.152141,-7.85562 0.715307,-0.39784 2.852327,-1.41559 4.748927,-2.26167 5.02824,-2.2431 6.68608,-3.39626 7.42496,-5.16463 0.95931,-2.29597 -0.40445,-4.35108 -4.01492,-6.05027 -2.33786,-1.10026 -2.43863,-1.02995 3.62618,-2.53016 2.13575,-0.5283 4.02218,-1.01701 4.19205,-1.08602 0.47127,-0.19144 2.14519,1.4278 2.85741,2.76405 0.854,1.60228 1.25751,3.47544 1.16084,5.38888 -0.10619,2.10199 -0.82895,3.64691 -2.44037,5.21632 -1.99246,1.94053 -3.69265,2.87 -10.52682,5.75489 -3.47274,1.46594 -4.61783,2.1085 -5.50245,3.08767 -0.852422,0.94353 -1.04548,1.82037 -0.62328,2.83085 0.47466,1.13602 1.17372,1.94946 2.44705,2.84743 0.63503,0.44784 1.15461,0.90792 1.15461,1.02241 0,0.19495 -4.344295,2.8345 -4.626884,2.81125 -0.07151,-0.006 -0.560849,-0.30871 -1.087426,-0.67295 z"
           id="path1122" />
        <path
           style="fill:#000000;stroke-width:0.194159"
           d="m 105.29462,213.71398 0.65393,-0.40415 v -2.80261 -2.80262 l -0.67956,-0.32405 c -0.63464,-0.30264 -0.72447,-0.30264 -1.35911,0 l -0.67956,0.32405 v 2.80226 2.80225 l 0.53394,0.39836 c 0.66908,0.4992 0.73274,0.49947 1.53036,0.007 z"
           id="path1120" />
        <path
           style="fill:#000000;stroke-width:0.194159"
           d="m 103.47302,214.20237 -0.82518,-0.49456 v -3.19515 -3.19514 l 0.84978,-0.41285 c 0.93537,-0.45444 1.38472,-0.41114 2.431,0.23426 l 0.65964,0.40689 -0.1257,2.05433 c -0.0691,1.12988 -0.12569,2.52018 -0.12569,3.08956 0,0.99576 -0.0295,1.05384 -0.77278,1.52307 -0.95552,0.60319 -1.06823,0.60263 -2.09107,-0.0104 z"
           id="path1118" />
        <path
           style="fill:#000000;stroke-width:0.194159"
           d="m 101.5246,215.96265 c 0.39288,-0.26697 0.79563,-0.4854 0.89501,-0.4854 0.0994,0 0.27807,-0.11734 0.3971,-0.26076 0.16806,-0.2025 0.1066,-0.31081 -0.275,-0.48467 -0.81301,-0.37044 -2.45091,-2.01763 -2.830434,-2.84651 -0.437844,-0.95624 -0.457515,-1.8276 -0.0626,-2.77301 0.580884,-1.39059 1.793964,-2.29086 5.134914,-3.81082 5.91939,-2.69301 7.84958,-4.04734 9.06327,-6.3593 0.4786,-0.91168 0.54413,-1.24651 0.54484,-2.78376 5.8e-4,-1.38056 -0.0871,-1.93803 -0.41777,-2.65525 -0.44166,-0.9579 -1.69954,-2.43914 -2.64003,-3.10883 l -0.56059,-0.39918 -2.1189,0.8488 c -1.1654,0.46684 -2.11991,0.89549 -2.12115,0.95256 -0.001,0.0571 0.26778,0.26326 0.5978,0.45821 2.27692,1.345 3.02951,3.12367 2.14466,5.06865 -0.50024,1.09956 -2.37128,2.75131 -4.61147,4.07097 -4.756284,2.80185 -5.635708,3.3804 -6.877385,4.52447 -1.65965,1.52917 -2.322909,2.77422 -2.322909,4.36049 0,1.42697 0.380686,2.34757 1.416845,3.42632 0.724995,0.7548 3.482959,2.74242 3.805289,2.74242 0.0683,0 0.44563,-0.21843 0.83851,-0.4854 z"
           id="path1116" />
        <path
           style="fill:#000000;stroke-width:0.194159"
           d="m 99.067043,216.17204 c -1.70096,-1.05524 -3.0421,-2.32262 -3.626911,-3.42744 -0.368423,-0.69602 -0.454387,-1.15443 -0.452412,-2.41257 0.0052,-3.30033 1.282271,-4.62772 8.68108,-9.02297 2.90904,-1.72811 4.51123,-3.01536 5.12068,-4.11411 0.13852,-0.24973 0.25495,-0.85615 0.25873,-1.3476 0.009,-1.19005 -0.53777,-1.96901 -2.12887,-3.03201 -0.69411,-0.46373 -1.28407,-0.94971 -1.31101,-1.07994 -0.0708,-0.34243 4.88019,-2.33967 5.3949,-2.17631 0.22144,0.0703 0.95302,0.64266 1.62574,1.27196 3.46673,3.24296 3.15556,8.14954 -0.71426,11.26263 -1.07858,0.86768 -3.18583,1.9964 -7.51943,4.0277 -3.30982,1.55142 -4.463416,2.62878 -4.464936,4.16985 -0.0014,1.39946 1.204766,2.96303 3.152866,4.08718 0.39963,0.23061 0.72727,0.51945 0.72809,0.64189 0.002,0.26202 -2.74468,2.01534 -3.13146,1.99911 -0.14565,-0.006 -0.871413,-0.38743 -1.612797,-0.84737 z"
           id="path1114" />
        <path
           style="fill:#000000;stroke-width:0.194159"
           d="m 105.25911,227.05993 c 0.46425,-0.60866 0.49528,-0.78854 0.49528,-2.87118 0,-2.16596 -0.0141,-2.23874 -0.56158,-2.89406 l -0.56159,-0.67222 -0.42909,0.38786 c -0.52164,0.47152 -0.89136,1.22376 -0.85907,1.74789 0.0132,0.21357 0.0369,1.14611 0.0527,2.07231 0.0257,1.50601 0.0819,1.74713 0.53141,2.28137 0.27646,0.32855 0.57781,0.59737 0.66967,0.59737 0.0919,0 0.3899,-0.2922 0.6623,-0.64934 z"
           id="path1112" />
        <path
           style="fill:#000000;stroke-width:0.194159"
           d="m 104.13562,228.20323 c -0.19621,-0.14868 -0.56754,-0.55605 -0.82518,-0.90526 -0.43769,-0.59326 -0.46844,-0.7981 -0.46844,-3.12072 v -2.48579 l 0.71067,-0.78662 c 0.88432,-0.97884 1.29496,-0.94637 2.14451,0.16958 0.63759,0.83752 0.63969,0.84757 0.63969,3.07077 0,2.38645 -0.0917,2.7161 -1.03218,3.7097 -0.67663,0.71487 -0.68292,0.71674 -1.16907,0.34834 z"
           id="path1110" />
        <path
           style="fill:#000000;stroke-width:0.194159"
           d="m 102.77276,229.21401 0.58869,-0.43686 -0.42777,-0.45349 c -0.91122,-0.96599 -1.34533,-2.17249 -1.41849,-3.9423 -0.1381,-3.34078 0.9645,-4.61003 6.88522,-7.9259 3.66146,-2.05059 5.05992,-3.59478 5.26069,-5.8089 0.0873,-0.96246 0.0218,-1.32082 -0.41687,-2.28144 -0.54552,-1.19463 -1.45707,-2.27394 -2.68921,-3.18413 l -0.7329,-0.5414 -1.7494,0.79906 -1.74941,0.79906 0.55353,0.29973 c 1.88804,1.02235 2.8162,2.26395 2.8162,3.76722 0,2.04034 -1.00135,3.16747 -4.81237,5.41687 -4.952551,2.92318 -6.550614,4.65256 -6.833683,7.39524 -0.128605,1.24606 0.334684,3.16731 1.003789,4.16269 0.564453,0.8397 2.391474,2.36947 2.831254,2.37062 0.16613,3.9e-4 0.56696,-0.1958 0.89073,-0.43607 z"
           id="path1108" />
        <path
           style="fill:#000000;stroke-width:0.194159"
           d="m 100.27122,229.3581 c -1.967483,-1.54456 -2.671601,-3.04751 -2.671358,-5.70204 1.32e-4,-1.4445 0.07681,-1.83448 0.558277,-2.83943 0.962977,-2.01 2.303801,-3.15537 6.720401,-5.74075 1.17349,-0.68694 2.5428,-1.65305 3.04292,-2.14691 2.10896,-2.08256 1.59818,-4.25654 -1.39506,-5.93769 -0.53118,-0.29834 -0.96586,-0.6449 -0.96597,-0.77015 -1.1e-4,-0.12525 0.93798,-0.67588 2.08464,-1.22362 2.43101,-1.16127 2.319,-1.17674 4.19656,0.57962 1.71704,1.60621 2.35101,2.89301 2.33919,4.74798 -0.0185,2.8966 -1.51895,4.5157 -6.84394,7.38497 -3.15974,1.70257 -4.77313,3.29641 -5.29494,5.23081 -0.41619,1.54282 0.25445,3.97884 1.39663,5.07312 0.31261,0.2995 0.56839,0.65506 0.56839,0.79014 0,0.35204 -1.63621,1.42921 -2.17074,1.42907 -0.24772,-7e-5 -0.95198,-0.39387 -1.565,-0.87512 z"
           id="path1106" />
        <path
           style="fill:#000000;stroke-width:0.194159"
           d="m 99.572617,234.93037 c 0.976983,-1.29927 2.504563,-2.42728 5.055103,-3.73283 2.59117,-1.32635 3.99529,-2.28466 4.97008,-3.39208 1.01066,-1.14817 1.39888,-2.30743 1.39888,-4.1771 0,-1.2594 -0.088,-1.66382 -0.57361,-2.63559 -0.31549,-0.63135 -0.93039,-1.49629 -1.36645,-1.92209 l -0.79283,-0.77417 -1.07766,0.5805 c -0.59272,0.31928 -1.11705,0.64319 -1.16518,0.71981 -0.0481,0.0766 0.21934,0.58541 0.5944,1.13065 0.81575,1.1859 1.0781,2.04329 1.07955,3.5282 0.003,2.58203 -1.31566,4.40665 -4.83726,6.69573 -3.79518,2.46692 -4.870473,3.83273 -4.861214,6.17459 l 0.0046,1.16495 0.398292,-1.16495 c 0.21906,-0.64073 0.74704,-1.62875 1.173291,-2.19562 z"
           id="path1104" />
        <path
           style="fill:#000000;stroke-width:0.194159"
           d="m 97.594416,238.26545 c -0.419454,-2.0205 0.103749,-3.79468 1.557358,-5.28098 0.452274,-0.46245 1.838926,-1.49741 3.081446,-2.29991 1.24253,-0.8025 2.59714,-1.77839 3.01026,-2.16865 2.26135,-2.13619 2.51824,-5.95332 0.53419,-7.93737 -0.93201,-0.93201 -0.87323,-1.03392 1.35875,-2.35545 1.04899,-0.6211 1.38416,-0.53326 2.46095,0.64492 1.55101,1.69705 1.88497,2.55906 1.8833,4.861 -0.001,1.62313 -0.0768,2.10881 -0.46084,2.9611 -0.70867,1.5726 -2.39438,2.99972 -5.5134,4.66766 -1.45601,0.77863 -3.15474,1.79714 -3.77497,2.26337 -1.70778,1.28377 -2.818102,3.00061 -3.132822,4.84417 -0.08669,0.5078 -0.249996,0.81514 -0.454001,0.85443 -0.245817,0.0473 -0.371531,-0.19355 -0.550221,-1.05429 z"
           id="path1102" />
        <path
           style="fill:#000000;stroke-width:0.194159"
           d="m 110.91938,235.612 c -0.34034,-1.17074 -1.2488,-2.31807 -2.64966,-3.3464 -0.89864,-0.65966 -1.01851,-0.69688 -1.54384,-0.47927 l -0.56956,0.23591 1.10961,0.82112 c 1.91578,1.41769 2.88377,2.65321 3.65958,4.67095 0.30428,0.79139 0.29898,-0.85275 -0.006,-1.90231 z"
           id="path1100" />
        <path
           style="fill:#000000;stroke-width:0.194159"
           d="m 110.72068,239.32643 c -0.0451,-0.14237 -0.13335,-0.56465 -0.19603,-0.93841 -0.31703,-1.89023 -1.90742,-4.02367 -4.0086,-5.37733 -0.63062,-0.40628 -1.14735,-0.83575 -1.14828,-0.9544 -9.7e-4,-0.11864 0.38977,-0.42339 0.86823,-0.67721 0.86416,-0.45844 0.87437,-0.4591 1.54201,-0.0995 1.14334,0.61573 2.82391,2.25471 3.32414,3.24186 0.39289,0.77533 0.4736,1.20783 0.45766,2.45253 -0.0106,0.83115 -0.0786,1.72313 -0.15098,1.98219 -0.14955,0.53516 -0.56502,0.75874 -0.68815,0.37032 z"
           id="path1098" />
        <path
           style="fill:#000000;stroke-width:0.194159"
           d="m 105.14319,246.64487 c 0.37711,-0.63916 0.39952,-1.00218 0.42796,-6.93357 l 0.03,-6.25909 -0.5757,-0.27264 c -0.51317,-0.24303 -0.63411,-0.23438 -1.11335,0.0796 l -0.53764,0.35228 0.14036,6.22291 c 0.14001,6.20746 0.14155,6.22448 0.61736,6.85393 0.26236,0.34706 0.50762,0.63102 0.54503,0.63102 0.0374,0 0.2471,-0.30351 0.46597,-0.67447 z"
           id="path1096" />
        <path
           style="fill:#000000;stroke-width:0.194159"
           d="m 105.52395,248.12258 c -0.0354,-1.23904 -0.074,-1.39502 -0.23467,-0.94886 -0.10578,0.29367 -0.26799,0.53394 -0.36047,0.53394 -0.0925,0 -0.11152,0.10921 -0.0423,0.2427 0.0692,0.13348 -0.18776,-0.0837 -0.57102,-0.48255 -0.39385,-0.40991 -0.69683,-0.60484 -0.69683,-0.44831 0,0.15231 0.0876,0.33107 0.19468,0.39725 0.13014,0.0804 0.13014,0.24092 0,0.48409 -0.28976,0.54143 -0.25511,0.58346 0.48118,0.58346 0.55479,0 0.69718,0.085 0.79491,0.47436 0.0655,0.2609 0.0626,0.5657 -0.006,0.67733 -0.0759,0.12284 -0.005,0.15686 0.17891,0.0862 0.24505,-0.094 0.2961,-0.40568 0.26201,-1.59959 z"
           id="path1094" />
        <path
           style="fill:#000000;stroke-width:0.194159"
           d="m 104.68651,249.25827 c 0,-0.35308 -0.11756,-0.49943 -0.43772,-0.54489 -0.52822,-0.075 -0.77949,0.4249 -0.42703,0.84959 0.36378,0.43833 0.86475,0.26181 0.86475,-0.3047 z"
           id="path1092" />
        <path
           style="fill:#000000;stroke-width:0.194159"
           d="m 103.52156,250.16574 c -0.37467,-0.28041 -0.39173,-0.57607 -0.4854,-8.41262 -0.0534,-4.4671 -0.0376,-8.25789 0.0352,-8.42399 0.0727,-0.16609 0.44163,-0.46861 0.81978,-0.67226 0.68319,-0.36792 0.69221,-0.3676 1.42105,0.05 l 0.73349,0.42029 -0.0236,8.37205 c -0.0156,5.51275 -0.0927,8.4411 -0.22581,8.57422 -0.3522,0.3522 -1.84635,0.41282 -2.27462,0.0923 z"
           id="path1070" />
      </g>
      <path
         style="fill:#ffffff;fill-opacity:1;stroke:none;stroke-width:0.386072px;stroke-linecap:butt;stroke-linejoin:miter;stroke-opacity:1"
         d="m 282.44149,143.33433 c 1.76569,-0.23285 3.15213,0.0741 3.14052,2.37115 z"
         id="path2398"
         sodipodi:nodetypes="ccc" />
      <path
         style="fill:#ffffff;fill-opacity:1;stroke:none;stroke-width:0.386072px;stroke-linecap:butt;stroke-linejoin:miter;stroke-opacity:1"
         d="m 303.42055,144.30303 c -1.76569,-0.23285 -3.15213,0.0741 -3.14052,2.37115 z"
         id="path2398-6"
         sodipodi:nodetypes="ccc" />
    </g>
  </g>
</svg>
